<?xml version="1.0" standalone="no"?>
<!DOCTYPE svg PUBLIC "-//W3C//DTD SVG 20010904//EN"
 "http://www.w3.org/TR/2001/REC-SVG-20010904/DTD/svg10.dtd">
<svg version="1.0" xmlns="http://www.w3.org/2000/svg"
 width="1080.000000pt" height="1080.000000pt" viewBox="0 0 1080.000000 1080.000000"
 preserveAspectRatio="xMidYMid meet">

<g transform="translate(0.000000,1080.000000) scale(0.100000,-0.100000)"
fill="#000000" stroke="none">
<path d="M5335 9459 c-67 -13 -196 -55 -190 -61 6 -6 -17 -16 -40 -19 -5 0
-31 -16 -56 -35 -26 -19 -49 -34 -52 -34 -8 0 -135 -78 -180 -111 -40 -29
-147 -141 -147 -154 0 -4 -13 -27 -30 -51 -16 -25 -33 -56 -36 -69 -3 -14 -10
-25 -15 -25 -5 0 -9 -6 -9 -13 0 -7 -9 -18 -20 -25 -11 -7 -20 -20 -20 -30 0
-10 -11 -45 -24 -78 -22 -57 -41 -131 -38 -146 1 -4 -3 -20 -9 -35 -6 -15 -13
-50 -16 -78 -3 -27 -8 -69 -13 -92 -4 -24 -3 -40 1 -37 5 3 9 14 9 24 0 10 4
22 10 25 6 4 8 -51 6 -157 -3 -107 -1 -174 7 -196 9 -25 9 -35 -1 -40 -8 -6
-9 -30 -4 -87 9 -98 -10 -323 -32 -388 -9 -26 -27 -70 -41 -97 -27 -53 -65
-145 -70 -170 -2 -8 -9 -35 -15 -60 -7 -25 -12 -55 -12 -67 0 -13 -3 -21 -7
-19 -3 2 -7 -20 -7 -50 -1 -30 -6 -60 -11 -67 -23 -28 -27 -89 -23 -327 3
-153 1 -179 -15 -210 -10 -19 -21 -37 -24 -40 -4 -3 -12 -16 -19 -30 -20 -42
-51 -93 -77 -130 -14 -19 -36 -49 -48 -67 -12 -17 -43 -58 -70 -90 -26 -32
-66 -85 -88 -118 -34 -50 -35 -54 -7 -20 30 37 155 166 151 157 -3 -8 32 -42
43 -42 7 0 14 -7 17 -15 4 -9 -10 -28 -39 -51 -73 -60 -134 -162 -159 -269
-13 -57 -11 -145 5 -175 8 -15 6 -29 -10 -61 -12 -22 -19 -46 -17 -52 2 -7 0
-20 -4 -29 -6 -10 -5 -19 1 -23 5 -3 10 2 11 12 0 11 3 13 6 5 3 -7 -1 -19 -7
-27 -9 -11 -9 -15 -1 -15 6 0 11 -6 11 -14 0 -7 8 -24 18 -37 10 -13 22 -33
26 -44 5 -16 1 -14 -20 8 -14 16 -28 26 -31 23 -2 -2 4 -13 14 -23 36 -39 63
-73 55 -73 -4 0 -2 -4 5 -8 19 -12 73 -141 73 -173 0 -29 -15 -50 -55 -79 -11
-8 -5 2 13 21 17 19 32 39 32 44 0 11 -14 -4 -96 -112 -31 -40 -61 -76 -67
-80 -7 -5 -27 -25 -45 -46 -17 -21 -32 -34 -32 -30 0 4 -14 -14 -30 -42 -19
-32 -28 -58 -25 -72 3 -13 1 -23 -4 -23 -14 0 -49 -116 -56 -185 -4 -36 0
-101 9 -163 16 -104 64 -293 77 -302 4 -3 13 -26 19 -52 7 -26 18 -49 26 -52
8 -3 14 -17 14 -31 0 -16 4 -24 11 -20 6 4 8 14 5 24 -5 12 -2 11 9 -3 10 -13
15 -42 15 -83 0 -61 1 -63 25 -63 14 0 28 -1 33 -2 11 -2 32 -25 32 -35 0 -18
60 -74 72 -67 7 4 8 3 4 -5 -4 -6 -13 -9 -19 -5 -7 3 -3 -2 7 -10 13 -10 22
-12 26 -6 4 6 14 8 24 4 14 -5 16 -2 12 20 -2 14 0 28 5 32 6 3 8 12 5 20 -3
7 -1 16 4 19 15 9 12 42 -6 59 -8 9 -13 16 -9 16 3 0 -1 12 -8 28 -7 15 -12
35 -9 45 5 22 -19 107 -30 107 -4 0 -3 -12 3 -27 10 -27 10 -27 -10 -8 -24 21
-29 60 -7 52 21 -8 27 3 10 21 -13 12 -13 16 -2 23 9 7 10 11 2 17 -16 10 -53
99 -46 108 4 4 1 4 -5 0 -7 -4 -14 -2 -14 3 -3 21 -4 26 -12 39 -13 20 -26 72
-19 72 4 0 7 16 8 36 0 20 6 39 13 44 9 5 10 10 2 14 -7 5 -7 14 1 31 10 23
12 23 24 7 12 -15 13 -14 14 11 0 15 4 27 8 27 4 0 9 16 10 35 3 45 19 88 31
81 5 -3 12 -31 16 -61 7 -61 26 -68 20 -7 -4 36 -4 36 7 -6 9 -35 9 -45 -2
-52 -14 -9 -7 -97 9 -113 5 -5 6 3 3 19 -3 19 -2 25 7 19 7 -4 10 -9 8 -12 -6
-6 29 -84 61 -135 13 -21 27 -50 32 -65 21 -65 39 -108 44 -105 17 7 35 0 30
-12 -3 -7 9 -25 25 -39 17 -14 31 -30 31 -36 0 -6 3 -10 8 -9 11 4 72 -23 72
-32 0 -4 7 -11 16 -14 12 -5 15 -2 10 10 -6 15 -4 15 11 3 9 -8 14 -9 10 -2
-4 6 -3 14 3 18 5 3 10 1 10 -5 0 -7 8 -9 19 -5 20 6 35 -8 46 -45 4 -14 13
-28 19 -32 8 -5 12 -121 14 -385 2 -208 6 -381 10 -385 4 -3 107 -31 228 -62
187 -47 236 -56 310 -56 143 0 259 18 368 55 69 24 117 35 157 35 48 0 60 4
73 22 17 24 21 75 8 95 -6 9 -25 7 -82 -7 -134 -36 -251 -50 -480 -60 -124 -6
-272 -15 -329 -20 -167 -16 -158 -18 -163 36 -3 40 0 47 18 54 31 12 312 40
402 40 102 0 384 26 497 45 148 25 135 17 135 85 0 51 -3 60 -17 60 -10 0 -99
-9 -198 -20 -99 -11 -261 -25 -360 -30 -199 -11 -439 -29 -471 -35 -18 -4 -22
2 -31 40 l-10 45 37 10 c74 20 238 39 420 50 158 9 618 55 626 63 4 4 8 127 3
131 -2 2 -31 0 -64 -5 -111 -15 -359 -39 -570 -54 -115 -9 -263 -22 -329 -31
-65 -8 -120 -13 -123 -10 -3 2 -7 22 -10 44 l-5 40 68 10 c96 15 194 27 544
67 168 19 349 40 402 46 l97 12 7 64 c3 35 4 66 2 69 -5 4 -168 -15 -503 -61
-99 -13 -263 -33 -365 -45 -102 -11 -201 -22 -221 -25 -43 -6 -56 6 -61 55
l-3 35 65 7 c138 16 312 39 470 63 91 14 215 32 275 40 108 15 278 42 323 51
20 4 22 10 22 69 0 46 -4 65 -13 65 -7 0 -116 -16 -242 -35 -127 -19 -282 -42
-345 -50 -63 -8 -145 -20 -182 -25 -129 -19 -206 -5 -247 44 -19 22 -7 20 37
-7 37 -23 72 -39 72 -33 0 2 -20 16 -45 31 -24 16 -43 30 -41 32 2 2 129 23
282 47 153 24 381 61 506 82 l226 38 4 58 c2 32 0 58 -4 58 -4 0 -36 -7 -71
-15 -132 -30 -586 -104 -706 -115 -68 -5 -170 -10 -226 -9 -96 1 -102 2 -98
20 4 15 1 18 -11 13 -11 -4 -16 -1 -16 12 0 24 10 39 32 47 17 6 192 20 408
32 58 4 152 13 210 20 177 24 491 72 494 76 2 2 7 28 11 57 6 43 4 52 -9 52
-8 0 -80 -11 -158 -25 -153 -27 -306 -41 -568 -51 -91 -3 -196 -13 -235 -21
-138 -28 -127 -30 -123 14 3 38 4 38 53 44 28 4 91 20 141 38 82 28 111 32
270 41 254 14 418 29 493 44 37 8 88 17 114 21 27 3 50 12 51 18 2 7 9 31 16
55 7 23 11 44 8 47 -2 3 -27 1 -54 -5 -27 -5 -139 -17 -249 -25 -281 -22 -414
-40 -535 -75 -106 -30 -190 -39 -190 -20 0 6 7 24 15 39 8 16 11 31 8 35 -4 3
2 6 13 6 65 2 149 15 214 36 70 21 261 59 425 83 60 9 232 22 322 24 28 1 101
-36 115 -57 3 -6 25 -31 47 -56 23 -25 59 -72 80 -105 31 -48 38 -68 36 -100
-1 -21 -7 -41 -13 -43 -5 -1 -8 -12 -5 -22 3 -11 0 -41 -6 -67 -6 -26 -13 -81
-16 -122 -3 -45 -11 -81 -20 -91 -17 -19 -20 -34 -5 -25 33 21 -25 -206 -165
-635 -70 -217 -82 -265 -66 -274 11 -7 53 44 57 69 1 9 18 47 38 85 19 39 33
70 29 70 -3 0 0 6 6 13 6 8 17 42 25 78 17 70 79 313 96 371 10 36 11 36 39
22 16 -8 34 -21 41 -29 19 -23 39 -19 32 7 -4 16 -2 19 9 13 8 -5 11 -4 6 1
-5 5 -14 9 -20 9 -15 0 -21 121 -7 130 6 3 10 -1 10 -9 0 -9 5 -17 10 -17 6
-1 16 -2 23 -3 6 -1 15 8 19 19 6 18 6 18 7 -3 1 -13 5 -20 11 -17 6 4 15 -7
21 -24 6 -17 15 -29 19 -26 5 3 16 -15 25 -39 17 -44 56 -87 106 -118 30 -19
109 -32 109 -18 0 5 6 10 14 10 13 0 30 35 26 55 -1 5 -2 19 -3 30 -1 24 -32
67 -41 57 -4 -3 -4 1 -1 10 4 10 0 27 -9 40 -22 32 -20 39 9 28 17 -6 25 -6
25 1 0 6 -9 13 -20 16 -21 6 -28 23 -9 23 6 0 9 6 6 13 -2 6 -9 11 -14 10 -8
-2 -11 25 -4 46 0 3 13 -6 28 -20 28 -26 24 -13 -13 37 -13 17 -21 34 -18 37
3 3 1 14 -5 25 -9 17 -7 19 18 18 33 -1 108 -63 103 -85 -3 -12 -1 -13 11 -3
12 10 16 9 21 -3 5 -14 47 -37 71 -39 24 -2 15 -44 -14 -69 -32 -27 -42 -67
-17 -67 8 0 19 -12 24 -27 l10 -28 1 26 c1 22 5 27 26 25 30 -1 34 -20 20
-101 -3 -16 -8 -55 -12 -85 -3 -30 -11 -58 -17 -62 -7 -5 -6 -8 4 -8 11 0 12
-2 3 -8 -7 -5 -11 -24 -10 -46 2 -20 -3 -49 -10 -63 -11 -21 -11 -28 -1 -35
10 -6 10 -8 -1 -8 -8 0 -11 -6 -7 -16 4 -10 2 -13 -6 -8 -7 5 -9 2 -6 -8 3 -8
3 -33 -2 -56 -4 -25 -3 -45 2 -48 5 -3 8 -13 6 -22 -4 -19 30 -41 50 -34 6 2
12 12 12 21 0 14 2 14 10 1 7 -11 4 -20 -13 -34 l-22 -19 30 7 30 7 -24 -19
-23 -19 32 -1 c24 0 30 3 26 14 -5 12 -2 12 15 3 15 -8 19 -8 15 0 -4 6 -1 11
6 11 9 0 10 3 2 8 -6 4 -8 15 -5 25 6 16 7 16 23 -2 9 -11 14 -22 11 -25 -4
-3 -1 -6 6 -6 16 0 4 40 -18 58 -9 8 -10 11 -3 7 8 -4 12 2 12 18 0 29 60 94
71 76 4 -8 9 -4 14 10 3 11 10 21 15 21 4 0 6 10 3 23 -5 21 -5 21 9 3 11 -14
17 -16 22 -7 4 6 2 18 -4 26 -10 12 -9 15 4 15 10 0 15 4 12 9 -3 5 1 11 9 15
20 7 19 -3 -2 -26 -9 -10 -11 -18 -5 -18 6 0 16 9 22 21 7 12 18 18 26 15 9
-3 12 -1 9 4 -3 6 -3 10 2 10 4 0 9 15 9 33 1 17 7 46 15 62 17 39 19 67 7 82
-5 7 -8 18 -6 25 3 7 -1 27 -8 44 -13 31 -12 60 5 144 8 39 9 41 10 13 1 -17
5 -34 9 -37 13 -8 3 84 -18 163 -11 41 -25 116 -30 165 -6 50 -15 100 -20 111
-5 11 -11 41 -15 67 -3 26 -10 50 -16 53 -19 12 -8 62 27 119 19 33 33 67 31
75 -3 9 -19 48 -35 87 -17 39 -39 104 -51 145 -15 54 -30 83 -59 113 -55 59
-90 108 -120 174 -24 51 -27 69 -27 172 l-1 115 -48 65 c-55 75 -94 148 -126
240 -40 112 -161 392 -202 468 l-40 73 28 40 c15 22 40 50 56 62 l28 22 -37
60 c-47 78 -115 241 -138 330 -9 39 -26 95 -37 125 -11 30 -24 93 -29 140 -4
47 -24 134 -43 195 -19 61 -39 145 -44 187 -8 61 -17 89 -46 134 l-35 58 35
24 36 24 -31 19 c-23 14 -31 26 -31 46 0 52 11 58 77 43 121 -26 217 -29 241
-7 12 11 36 17 70 17 40 0 52 4 52 15 0 35 38 55 103 55 54 1 60 2 45 14 -19
14 -25 32 -8 21 12 -8 10 7 -27 150 -76 298 -118 425 -198 590 -120 246 -243
403 -414 529 -80 58 -109 75 -137 81 -6 2 -27 10 -45 19 -43 20 -111 23 -175
6 -49 -12 -54 -12 -95 10 -48 25 -148 34 -224 19z m155 -419 c12 -8 11 -10 -7
-10 -12 0 -25 5 -28 10 -8 13 15 13 35 0z m104 -85 c3 -8 12 -15 21 -15 8 0
15 -5 15 -11 0 -5 4 -8 9 -5 5 3 12 -1 15 -10 3 -8 10 -12 16 -9 5 3 10 -1 10
-9 0 -9 5 -16 10 -16 6 0 10 -9 10 -21 0 -11 5 -17 10 -14 6 3 10 -3 10 -14 0
-14 5 -19 16 -14 10 4 15 1 13 -8 -2 -8 5 -28 14 -46 9 -18 17 -45 17 -61 0
-16 11 -56 24 -89 14 -33 23 -69 20 -80 -3 -11 2 -27 11 -37 9 -9 13 -16 9
-16 -3 0 -2 -6 3 -12 6 -7 9 -24 8 -38 -1 -14 1 -29 5 -35 19 -25 63 -174 51
-176 -11 -3 -55 -6 -146 -13 -128 -10 -200 -32 -241 -74 -19 -19 -34 -43 -34
-54 0 -10 -3 -18 -8 -18 -10 0 -40 -70 -51 -121 -5 -22 -11 -42 -13 -43 -1 -1
-55 0 -118 2 l-115 4 -27 39 c-61 86 -168 129 -320 129 -88 0 -160 -30 -201
-81 -23 -29 -27 -31 -28 -14 0 13 -4 8 -10 -12 -9 -29 -39 -48 -39 -24 0 24
21 61 34 61 8 0 18 5 21 10 4 6 11 83 15 172 8 150 11 163 36 201 15 23 28 48
28 56 1 9 13 41 28 71 14 30 34 84 44 118 11 36 27 68 36 73 10 5 26 26 37 47
23 45 141 142 173 142 17 0 19 3 9 9 -39 25 126 71 202 57 22 -4 35 -11 31
-18 -4 -6 1 -6 14 1 33 18 39 12 12 -11 -20 -17 -21 -20 -5 -14 27 10 137 36
153 36 7 0 10 -4 7 -10 -3 -5 -2 -10 4 -10 5 0 13 5 16 11 5 7 13 4 26 -7 15
-13 22 -14 33 -5 8 7 20 10 25 7 6 -4 15 3 21 14 13 24 26 26 34 5z m-1094
-772 c1 -54 0 -118 -1 -143 l-2 -45 -8 45 c-10 59 -9 292 2 263 4 -12 8 -66 9
-120z m90 -20 c0 -10 -9 -29 -20 -43 l-20 -25 0 31 c0 29 15 54 32 54 4 0 8
-8 8 -17z m1280 -63 c22 -6 23 -8 8 -15 -22 -9 -24 -25 -3 -25 8 0 12 -6 9
-14 -3 -8 -13 -15 -22 -14 -89 0 -217 -14 -267 -31 -33 -11 -62 -17 -65 -14
-3 3 14 22 37 42 71 64 217 98 303 71z m-1320 -54 c0 -8 -4 -18 -10 -21 -5 -3
-10 3 -10 14 0 12 5 21 10 21 6 0 10 -6 10 -14z m320 5 c-40 -12 -84 -37 -103
-59 -20 -22 -17 -26 31 -37 18 -4 45 -13 60 -21 15 -8 49 -13 75 -12 31 1 52
-4 57 -12 4 -7 15 -10 24 -7 9 4 16 3 16 -1 0 -4 -13 -13 -30 -19 -16 -6 -30
-16 -30 -22 0 -14 29 -14 86 0 43 11 56 23 32 31 -23 8 4 28 37 28 26 0 35 -5
41 -22 12 -36 12 -82 2 -95 -6 -7 -8 -20 -4 -29 7 -17 -14 -62 -50 -111 -13
-17 -52 -45 -85 -62 -187 -93 -401 36 -417 250 -4 57 -1 73 19 108 37 67 107
100 209 99 41 0 48 -2 30 -7z m46 -48 c-3 -10 1 -30 9 -45 17 -33 11 -35 -32
-8 -39 23 -41 33 -11 54 29 21 41 20 34 -1z m64 -4 c0 -12 -29 -24 -37 -16 -3
4 -3 13 0 21 6 16 37 11 37 -5z m678 -13 c-16 -8 -34 -18 -40 -21 -7 -4 -2 3
11 14 13 12 31 21 40 21 10 0 5 -6 -11 -14z m-93 -42 c-33 -49 -33 -67 1 -54
14 6 40 10 57 11 28 1 29 2 9 8 l-23 6 28 26 c33 30 57 41 78 33 25 -10 17
-27 -10 -22 -29 6 -28 7 -15 -26 6 -17 6 -26 0 -26 -6 0 -10 -7 -10 -15 0 -8
7 -15 15 -15 8 0 15 5 15 10 0 6 5 10 12 10 6 0 8 -3 5 -7 -10 -10 14 -34 27
-26 7 4 8 3 1 -4 -13 -14 -75 -25 -75 -14 0 5 -9 7 -20 4 -11 -3 -18 -9 -15
-13 10 -16 134 -42 167 -36 34 6 47 12 130 58 l46 27 12 -30 c18 -42 7 -145
-20 -199 -61 -122 -170 -172 -296 -135 -121 35 -205 114 -239 225 l-8 25 21
-25 c19 -22 21 -23 22 -6 0 15 3 16 15 6 23 -19 20 25 -3 48 -10 10 -16 24
-14 31 3 9 -2 11 -18 6 -21 -7 -23 -5 -16 26 8 43 36 75 49 57 6 -9 7 -8 3 4
-5 18 32 51 69 61 11 2 21 5 22 6 1 0 -9 -15 -22 -35z m-969 -93 c19 -84 29
-111 55 -153 56 -86 142 -134 263 -145 62 -5 74 -8 65 -19 -6 -8 -17 -14 -24
-14 -7 0 -23 -12 -36 -26 -13 -14 -48 -49 -76 -77 -29 -27 -53 -58 -53 -67 0
-11 16 -26 39 -38 l40 -21 30 48 c17 26 31 54 31 63 0 27 58 103 109 141 49
36 64 57 40 57 -6 0 7 20 29 44 57 62 92 138 92 199 l0 50 83 -6 c127 -10 122
-7 136 -95 7 -42 13 -88 13 -102 0 -14 3 -19 5 -12 3 7 17 -6 35 -33 16 -25
45 -58 63 -73 l34 -27 -19 -42 c-21 -48 -46 -59 -86 -39 -26 14 -30 14 -64
-11 -99 -75 -99 -75 -82 -92 16 -17 110 -21 167 -9 112 26 143 41 151 76 4 12
12 22 19 22 7 0 11 9 8 23 -4 21 -2 22 84 22 98 0 125 10 196 73 l41 37 -34
-42 c-18 -24 -39 -43 -47 -43 -21 0 -27 -29 -10 -48 24 -28 -1 -122 -33 -122
-10 0 -20 -6 -23 -12 -3 -9 -13 -7 -35 10 -41 29 -52 28 -105 -8 -46 -31 -63
-37 -52 -20 3 6 1 10 -4 10 -6 0 -11 -6 -11 -14 0 -24 -64 -46 -133 -46 -36 0
-77 -4 -92 -10 -35 -13 -76 -22 -100 -22 -45 0 -283 32 -318 42 -22 6 -42 8
-45 5 -6 -6 65 -70 77 -70 3 0 21 -11 39 -24 37 -26 49 -23 33 7 -6 12 -11 25
-11 31 0 12 36 12 65 1 24 -10 165 -31 221 -33 22 -1 48 -8 57 -15 13 -11 19
-11 36 0 17 10 23 10 35 -2 39 -41 21 -93 -32 -93 -17 0 -34 -7 -36 -14 -3 -8
-1 -11 4 -8 6 3 10 0 10 -8 0 -14 -25 -27 -62 -32 -9 -1 -23 -5 -32 -8 -9 -4
-16 -3 -16 1 0 4 -19 6 -42 3 -37 -3 -40 -5 -20 -12 37 -14 25 -22 -23 -15
-25 4 -45 4 -45 1 0 -3 26 -18 58 -33 47 -21 74 -26 155 -29 54 -1 102 -5 107
-8 20 -12 120 26 156 59 28 26 38 43 40 70 1 20 -2 36 -7 36 -5 0 -9 -4 -9
-10 0 -5 -5 -10 -11 -10 -7 0 -9 10 -4 28 4 15 8 32 9 37 4 25 35 53 88 79 41
19 60 35 64 52 8 31 25 30 58 -2 22 -23 25 -32 20 -68 -4 -22 -15 -57 -25 -76
-9 -19 -20 -46 -23 -60 -6 -28 -22 -51 -80 -116 -22 -24 -46 -44 -53 -44 -7 0
-13 -4 -13 -10 0 -5 -7 -10 -15 -10 -8 0 -15 -4 -15 -10 0 -5 -9 -10 -19 -10
-11 0 -28 -15 -40 -32 -77 -121 -88 -131 -216 -197 -42 -21 -131 -25 -187 -8
-62 20 -52 3 11 -18 26 -8 63 -29 81 -45 19 -17 39 -30 45 -30 7 0 28 -12 48
-27 20 -16 61 -46 92 -68 31 -22 61 -45 68 -50 7 -6 37 -11 67 -10 30 0 60 -5
67 -11 8 -8 10 -47 7 -130 -4 -118 -4 -119 23 -141 20 -17 29 -20 39 -12 8 6
20 9 28 6 8 -3 22 3 32 14 9 10 26 19 37 19 15 0 18 -5 15 -25 -3 -14 -1 -28
3 -31 5 -3 9 1 9 8 0 8 5 6 11 -5 13 -22 2 -40 -20 -33 -12 5 -11 2 3 -9 11
-8 23 -15 28 -15 4 0 8 -7 8 -15 0 -13 -35 -15 -259 -15 -263 0 -507 -14 -527
-31 -6 -5 -14 -6 -17 -2 -4 3 -7 2 -7 -3 0 -5 -20 -10 -45 -12 -26 -1 -78 -13
-117 -27 -39 -14 -74 -25 -78 -25 -3 0 -3 21 0 46 5 46 6 47 52 61 31 9 49 20
53 33 13 42 13 119 0 215 -9 63 -13 141 -10 210 9 191 7 238 -14 302 -16 53
-32 77 -101 150 -88 94 -167 199 -205 273 -40 78 -57 151 -64 265 -5 96 -8
110 -23 109 -10 -1 -16 2 -13 6 3 4 -2 24 -10 44 -11 25 -15 73 -15 164 l0
129 25 -5 c17 -3 27 -13 31 -31z m1439 9 c3 -5 1 -10 -4 -10 -6 0 -11 5 -11
10 0 6 2 10 4 10 3 0 8 -4 11 -10z m7 -95 c-2 -14 -6 -25 -8 -25 -2 0 -4 11
-4 25 0 14 4 25 9 25 4 0 6 -11 3 -25z m-1535 -292 c-18 -39 -22 -67 -22 -147
0 -98 0 -99 -13 -55 -18 61 4 193 40 236 19 23 17 14 -5 -34z m1053 -318 c0
-15 -6 -25 -14 -25 -19 0 -28 14 -20 34 10 25 34 19 34 -9z m-1305 -737 c-4
-29 -8 -68 -10 -87 -4 -42 -13 -50 -100 -97 -57 -31 -67 -34 -55 -17 55 78
130 192 130 197 0 9 31 56 37 56 2 0 1 -24 -2 -52z m-115 -318 c0 -5 -4 -10
-10 -10 -5 0 -10 5 -10 10 0 6 5 10 10 10 6 0 10 -4 10 -10z m-104 -149 c-10
-11 -15 -24 -12 -30 4 -6 0 -23 -8 -38 -16 -33 -92 -116 -84 -93 27 75 46 110
76 143 37 38 60 53 28 18z m1227 -8 c-7 -2 -19 -2 -25 0 -7 3 -2 5 12 5 14 0
19 -2 13 -5z m50 0 c-7 -2 -19 -2 -25 0 -7 3 -2 5 12 5 14 0 19 -2 13 -5z
m615 -94 c15 -3 16 -19 1 -19 -7 0 -9 -10 -5 -24 3 -14 2 -27 -3 -31 -9 -5
-162 -14 -516 -30 -121 -6 -314 -30 -410 -51 -135 -31 -125 -32 -125 14 0 47
9 56 86 82 110 38 227 52 494 56 140 3 262 6 270 8 16 3 187 -1 208 -5z
m-1950 -55 c-12 -28 -36 -53 -50 -54 -4 0 7 20 24 45 35 49 46 53 26 9z m-18
-73 c-6 -12 -15 -21 -20 -21 -5 0 -11 -8 -13 -17 -3 -13 -5 -12 -6 5 0 14 9
32 22 42 27 22 33 19 17 -9z m0 -51 c0 -5 -5 -10 -11 -10 -5 0 -7 5 -4 10 3 6
8 10 11 10 2 0 4 -4 4 -10z m-20 -31 c0 -6 -4 -7 -10 -4 -5 3 -10 11 -10 16 0
6 5 7 10 4 6 -3 10 -11 10 -16z m17 -11 c-3 -8 -6 -5 -6 6 -1 11 2 17 5 13 3
-3 4 -12 1 -19z m1939 6 c-3 -9 -6 -28 -6 -44 0 -28 -1 -28 -72 -34 -40 -2
-132 -10 -204 -16 -77 -6 -141 -7 -155 -2 -15 6 -34 5 -56 -4 -18 -8 -62 -13
-100 -12 -47 1 -87 -5 -128 -19 -66 -23 -279 -58 -301 -49 -9 3 -14 20 -14 46
0 37 3 42 33 54 17 7 91 21 162 30 72 8 157 23 190 31 42 12 84 15 140 11 45
-4 126 0 185 8 58 7 156 14 219 15 99 1 112 -1 107 -15z m26 -29 c-2 -20 -8
-33 -12 -28 -9 10 -1 75 9 69 4 -3 5 -21 3 -41z m-52 -174 c0 -11 -4 -31 -9
-44 -9 -22 -17 -25 -98 -31 -48 -4 -160 -16 -248 -27 -93 -12 -225 -20 -315
-21 -148 0 -158 -2 -222 -29 -36 -16 -76 -29 -88 -29 -18 0 -21 5 -18 37 l3
38 80 21 c44 11 102 31 129 44 44 20 58 22 135 16 62 -5 135 -1 256 13 192 23
232 27 328 29 60 2 67 0 67 -17z m-29 -188 c0 -5 2 -23 3 -41 2 -18 1 -34 -3
-37 -4 -2 -93 -13 -197 -25 -104 -11 -196 -23 -204 -25 -72 -22 -210 -37 -320
-34 -69 2 -160 4 -203 4 -47 0 -76 4 -73 10 2 5 9 9 15 8 6 -2 11 10 11 25 0
24 7 32 38 46 44 19 75 21 204 11 95 -8 207 1 338 27 143 28 389 47 391 31z
m102 -38 c-3 -9 -8 -14 -10 -11 -3 3 -2 9 2 15 9 16 15 13 8 -4z m26 -84 c-2
-14 5 -41 14 -60 22 -43 21 -50 -1 -25 -51 56 -85 115 -48 85 11 -9 12 -6 8
14 -3 21 -1 24 12 19 11 -4 16 -16 15 -33z m0 -97 c12 -21 21 -32 21 -24 1 11
4 10 15 -4 20 -26 19 -40 -1 -32 -14 5 -15 4 -4 -9 7 -9 15 -13 18 -11 12 12
76 -80 96 -137 20 -60 20 -96 -1 -148 l-16 -41 -18 23 c-10 13 -19 31 -19 39
0 8 -9 21 -21 28 -12 8 -18 19 -15 27 3 8 0 14 -6 12 -6 -1 -13 4 -16 12 -3 9
0 11 9 7 8 -4 4 1 -8 12 -12 11 -19 22 -16 26 4 3 0 6 -8 6 -8 0 -25 18 -39
40 -13 21 -26 37 -29 35 -2 -3 -13 2 -23 12 -14 13 -17 24 -12 52 4 20 10 38
15 41 4 3 4 12 -1 20 -7 10 -10 11 -10 3 0 -23 -18 -14 -22 12 -3 14 -1 25 3
25 5 0 9 -4 9 -8 0 -5 7 -9 15 -9 8 0 15 8 15 18 0 9 3 25 6 34 6 14 8 14 25
-3 10 -11 27 -37 38 -58z m954 -73 c-1 -51 -4 -96 -7 -98 -3 -3 -12 -3 -21 0
-12 5 -15 24 -15 91 0 47 5 97 11 113 10 27 11 27 22 8 6 -12 11 -59 10 -114z
m-1130 92 c-7 -2 -13 -17 -13 -32 0 -31 20 -26 -315 -81 -99 -17 -228 -41
-286 -55 -116 -27 -180 -31 -276 -14 -59 10 -63 12 -57 35 5 18 2 24 -11 24
-12 0 -15 5 -9 23 3 12 7 22 8 23 0 0 44 -3 96 -8 114 -10 185 -5 350 27 69
13 190 31 270 40 80 9 147 19 149 21 2 2 27 4 55 3 28 0 45 -3 39 -6z m-998
-393 c-3 -5 -11 -10 -16 -10 -6 0 -7 5 -4 10 3 6 11 10 16 10 6 0 7 -4 4 -10z
m-312 -183 c3 -71 1 -130 -4 -133 -12 -7 -62 104 -55 122 3 7 1 14 -4 16 -15
5 20 108 36 108 8 0 14 5 14 12 0 6 2 9 5 7 2 -3 6 -62 8 -132z m-749 66 c-4
-10 -10 -74 -12 -143 -4 -80 -8 -114 -13 -95 -18 78 -2 255 24 255 5 0 6 -8 1
-17z m373 -60 c-3 -10 -5 -4 -5 12 0 17 2 24 5 18 2 -7 2 -21 0 -30z m-288
-518 c0 -5 -6 1 -14 15 -8 14 -14 30 -14 35 0 6 6 -1 14 -15 8 -14 14 -29 14
-35z m780 6 c-15 -5 -22 6 -14 19 6 9 10 9 16 -1 5 -8 4 -15 -2 -18z m-769
-31 c0 -5 -2 -10 -4 -10 -3 0 -8 5 -11 10 -3 6 -1 10 4 10 6 0 11 -4 11 -10z
m710 -20 c0 -5 -5 -10 -11 -10 -5 0 -7 5 -4 10 3 6 8 10 11 10 2 0 4 -4 4 -10z
m23 -60 c7 -29 1 -24 -17 11 -12 23 -12 28 -2 20 8 -7 16 -21 19 -31z"/>
<path d="M4748 8215 c-63 -46 -70 -59 -27 -51 95 17 149 17 248 -3 56 -12 111
-25 121 -31 14 -8 26 -7 40 0 19 10 19 13 5 40 -12 24 -25 31 -87 45 -40 9
-95 19 -123 21 -27 2 -68 6 -90 8 -33 4 -48 -1 -87 -29z"/>
<path d="M5506 7675 c-3 -8 -1 -15 4 -15 6 0 10 7 10 15 0 8 -2 15 -4 15 -2 0
-6 -7 -10 -15z"/>
<path d="M5446 7573 c1 -15 -2 -35 -7 -45 -13 -25 -2 -23 33 7 16 14 36 25 45
25 13 0 13 3 2 16 -7 9 -22 14 -36 11 -13 -2 -23 0 -23 4 0 5 -4 9 -9 9 -4 0
-7 -12 -5 -27z"/>
<path d="M5315 7070 c-3 -5 1 -10 10 -10 9 0 13 5 10 10 -3 6 -8 10 -10 10 -2
0 -7 -4 -10 -10z"/>
<path d="M5670 6890 c0 -5 5 -10 10 -10 6 0 10 5 10 10 0 6 -4 10 -10 10 -5 0
-10 -4 -10 -10z"/>
<path d="M603 9266 c-152 -49 -255 -204 -239 -360 29 -282 363 -414 570 -225
33 30 66 73 83 107 24 50 28 69 28 147 0 76 -4 99 -26 146 -56 120 -166 191
-299 196 -43 2 -93 -3 -117 -11z m31 -186 c31 -38 60 -70 64 -70 5 0 36 32 71
70 65 73 94 86 125 54 23 -23 20 -48 -11 -86 -60 -73 -288 -333 -298 -340 -29
-21 -85 7 -85 43 0 10 31 55 70 100 l69 82 -44 50 c-43 46 -45 52 -45 108 0
44 4 59 14 59 8 0 39 -31 70 -70z m270 -322 c16 -26 -4 -53 -40 -53 -23 0 -30
5 -32 23 -7 47 47 69 72 30z"/>
<path d="M2325 8730 c-10 -11 -13 -20 -8 -20 6 0 16 7 24 16 11 14 13 14 21 0
14 -24 31 -20 18 4 -6 11 -17 20 -24 20 -7 0 -21 -9 -31 -20z"/>
<path d="M2666 8734 c-10 -25 -1 -27 19 -4 15 17 16 20 3 20 -9 0 -19 -7 -22
-16z"/>
<path d="M1350 8720 c0 -5 5 -10 10 -10 6 0 10 5 10 10 0 6 -4 10 -10 10 -5 0
-10 -4 -10 -10z"/>
<path d="M1540 8635 c0 -57 4 -95 10 -95 6 0 10 19 10 43 0 54 18 80 51 75 22
-3 24 -8 27 -60 2 -32 7 -58 12 -58 13 0 13 96 0 121 -13 23 -47 25 -72 2 -17
-15 -18 -14 -18 25 0 23 -4 42 -10 42 -6 0 -10 -38 -10 -95z"/>
<path d="M1700 8665 c0 -37 4 -65 10 -65 6 0 10 28 10 65 0 37 -4 65 -10 65
-6 0 -10 -28 -10 -65z"/>
<path d="M1180 8711 c0 -15 52 -155 61 -165 12 -14 17 -6 50 80 31 85 33 94
21 94 -4 0 -19 -31 -32 -70 -13 -38 -27 -70 -31 -70 -4 0 -17 29 -29 65 -19
58 -40 92 -40 66z"/>
<path d="M1822 8712 c2 -4 16 -45 32 -90 16 -45 34 -82 40 -82 6 0 25 41 43
90 17 50 28 90 23 90 -7 0 -24 -39 -56 -129 -7 -21 -18 -4 -44 67 -12 34 -27
62 -32 62 -5 0 -8 -4 -6 -8z"/>
<path d="M2520 8700 c0 -11 -7 -20 -15 -20 -8 0 -15 -4 -15 -10 0 -5 7 -10 15
-10 12 0 15 -13 15 -60 0 -33 4 -60 10 -60 6 0 10 27 10 60 0 47 3 60 15 60 8
0 15 5 15 10 0 6 -7 10 -15 10 -8 0 -15 9 -15 20 0 11 -4 20 -10 20 -5 0 -10
-9 -10 -20z"/>
<path d="M1350 8610 c0 -40 4 -70 10 -70 6 0 10 30 10 70 0 40 -4 70 -10 70
-6 0 -10 -30 -10 -70z"/>
<path d="M1421 8662 c-13 -24 2 -47 39 -62 17 -7 29 -18 27 -24 -5 -16 -48
-20 -58 -5 -4 8 -11 10 -15 6 -13 -12 18 -37 47 -37 18 0 32 7 39 19 14 28 14
28 -30 56 -23 14 -38 30 -35 35 9 14 43 12 48 -2 2 -7 8 -10 12 -6 13 12 -15
38 -41 38 -13 0 -28 -8 -33 -18z"/>
<path d="M2000 8660 c-28 -28 -27 -84 2 -104 31 -22 64 -20 88 4 41 41 12 120
-45 120 -14 0 -34 -9 -45 -20z m78 -12 c7 -7 12 -24 12 -38 0 -31 -17 -50 -45
-50 -28 0 -45 19 -45 50 0 31 17 50 45 50 12 0 26 -5 33 -12z"/>
<path d="M2151 8654 c-12 -15 -21 -34 -21 -44 0 -30 39 -70 69 -70 29 0 70 34
57 47 -4 5 -12 0 -17 -10 -16 -27 -67 -22 -81 8 -17 38 3 75 41 75 18 0 34 -7
40 -17 5 -10 13 -15 17 -10 13 13 -28 47 -57 47 -18 0 -35 -9 -48 -26z"/>
<path d="M2310 8660 c-41 -41 -12 -120 44 -120 25 0 62 28 51 38 -3 3 -11 0
-17 -6 -25 -25 -78 -8 -78 25 0 9 16 13 50 13 43 0 50 3 50 19 0 48 -64 67
-100 31z m78 -22 c3 -15 -4 -18 -37 -18 -43 0 -50 7 -29 28 18 18 62 11 66
-10z"/>
<path d="M2616 8664 c-57 -56 6 -162 64 -109 18 16 20 17 20 2 0 -10 5 -17 10
-17 6 0 10 30 10 70 0 40 -4 70 -10 70 -5 0 -10 -5 -10 -12 0 -9 -3 -9 -12 0
-17 17 -54 15 -72 -4z m72 -16 c7 -7 12 -24 12 -38 0 -52 -61 -71 -82 -25 -23
51 32 101 70 63z"/>
<path d="M2810 8610 c0 -82 16 -94 22 -17 4 58 0 87 -13 87 -5 0 -9 -31 -9
-70z"/>
<path d="M2851 8666 c-10 -12 -6 -14 21 -13 l33 2 3 -57 c2 -32 7 -58 12 -58
14 0 12 114 -2 128 -16 16 -53 15 -67 -2z"/>
<path d="M2970 8622 c0 -32 5 -63 12 -70 16 -16 53 -15 66 1 8 9 3 12 -21 12
-32 0 -32 0 -35 58 -4 75 -22 74 -22 -1z"/>
<path d="M3068 8633 c-4 -60 1 -93 13 -93 5 0 9 32 9 70 0 79 -16 96 -22 23z"/>
<path d="M3120 8610 c0 -82 16 -94 22 -17 4 58 0 87 -13 87 -5 0 -9 -31 -9
-70z"/>
<path d="M3161 8666 c-10 -12 -6 -14 21 -13 l33 2 3 -57 c4 -70 22 -78 22 -10
0 53 12 72 47 72 21 0 23 -4 23 -60 0 -33 4 -60 10 -60 14 0 12 114 -2 128
-16 16 -43 15 -61 -3 -13 -13 -16 -13 -27 0 -16 19 -54 19 -69 1z"/>
<path d="M1700 8556 c0 -9 7 -16 16 -16 17 0 14 22 -4 28 -7 2 -12 -3 -12 -12z"/>
<path d="M2540 8390 c-7 -13 -7 -20 -1 -20 6 0 15 9 21 20 7 13 7 20 1 20 -6
0 -15 -9 -21 -20z"/>
<path d="M1280 8380 c0 -5 7 -10 15 -10 8 0 15 5 15 10 0 6 -7 10 -15 10 -8 0
-15 -4 -15 -10z"/>
<path d="M1990 8380 c0 -5 7 -10 15 -10 8 0 15 5 15 10 0 6 -7 10 -15 10 -8 0
-15 -4 -15 -10z"/>
<path d="M2060 8295 c0 -57 4 -95 10 -95 6 0 10 7 10 17 0 15 1 15 18 0 26
-23 58 -21 76 5 46 66 -19 153 -76 101 -17 -15 -18 -14 -18 25 0 23 -4 42 -10
42 -6 0 -10 -38 -10 -95z m98 13 c7 -7 12 -24 12 -38 0 -52 -61 -71 -82 -25
-23 51 32 101 70 63z"/>
<path d="M2720 8380 c0 -5 7 -10 15 -10 8 0 15 5 15 10 0 6 -7 10 -15 10 -8 0
-15 -4 -15 -10z"/>
<path d="M1825 8363 c-4 -13 -14 -23 -21 -23 -8 0 -14 -4 -14 -10 0 -5 7 -10
15 -10 12 0 15 -13 15 -60 0 -33 4 -60 10 -60 6 0 10 27 10 60 0 47 3 60 15
60 8 0 15 5 15 10 0 6 -6 10 -14 10 -8 0 -17 10 -19 23 l-4 22 -8 -22z"/>
<path d="M2395 8363 c-4 -13 -14 -23 -21 -23 -8 0 -14 -4 -14 -10 0 -5 7 -10
15 -10 12 0 15 -13 15 -60 0 -33 4 -60 10 -60 6 0 10 27 10 60 0 47 3 60 15
60 8 0 15 5 15 10 0 6 -6 10 -14 10 -8 0 -17 10 -19 23 l-4 22 -8 -22z"/>
<path d="M890 8270 c0 -82 17 -95 22 -16 4 62 0 86 -13 86 -5 0 -9 -31 -9 -70z"/>
<path d="M927 8333 c-12 -12 -7 -22 8 -17 8 4 15 10 15 15 0 11 -14 12 -23 2z"/>
<path d="M991 8314 c-12 -15 -21 -34 -21 -44 0 -31 39 -70 70 -70 29 0 59 25
45 38 -4 4 -10 1 -12 -5 -7 -21 -61 -16 -73 6 -15 30 -14 31 45 31 60 0 67 9
39 48 -22 31 -67 29 -93 -4z m78 -7 c15 -19 4 -27 -36 -27 -31 0 -44 16 -26
33 11 12 50 8 62 -6z"/>
<path d="M1134 8314 c-13 -19 -15 -32 -8 -51 14 -40 39 -51 72 -32 22 12 27
22 27 52 0 23 5 37 13 37 6 0 12 5 12 10 0 6 -22 10 -50 10 -42 0 -52 -4 -66
-26z m74 -31 c2 -25 -1 -33 -18 -38 -39 -12 -67 34 -38 63 23 23 53 10 56 -25z"/>
<path d="M1290 8270 c0 -40 4 -70 10 -70 6 0 10 30 10 70 0 40 -4 70 -10 70
-6 0 -10 -30 -10 -70z"/>
<path d="M1340 8270 c0 -82 16 -94 22 -17 4 58 0 87 -13 87 -5 0 -9 -31 -9
-70z"/>
<path d="M1381 8326 c-10 -12 -6 -14 21 -13 l33 2 3 -57 c4 -70 22 -78 22 -10
0 53 12 72 47 72 21 0 23 -4 23 -60 0 -33 4 -60 10 -60 14 0 12 114 -2 128
-16 16 -43 15 -61 -3 -13 -13 -16 -13 -27 0 -16 19 -54 19 -69 1z"/>
<path d="M1610 8320 c-41 -41 -12 -120 44 -120 25 0 62 28 51 38 -3 3 -11 0
-17 -6 -25 -25 -78 -8 -78 25 0 9 16 13 50 13 43 0 50 3 50 19 0 48 -64 67
-100 31z m78 -22 c3 -15 -4 -18 -37 -18 -43 0 -50 7 -29 28 18 18 62 11 66
-10z"/>
<path d="M1900 8270 c0 -82 17 -95 22 -16 4 62 0 86 -13 86 -5 0 -9 -31 -9
-70z"/>
<path d="M1937 8333 c-12 -12 -7 -22 8 -17 8 4 15 10 15 15 0 11 -14 12 -23 2z"/>
<path d="M2000 8270 c0 -40 4 -70 10 -70 6 0 10 30 10 70 0 40 -4 70 -10 70
-6 0 -10 -30 -10 -70z"/>
<path d="M2220 8282 c0 -32 5 -63 12 -70 16 -16 53 -15 66 1 8 9 3 12 -21 12
-32 0 -32 0 -35 58 -4 75 -22 74 -22 -1z"/>
<path d="M2318 8293 c-4 -60 1 -93 13 -93 5 0 9 32 9 70 0 79 -16 96 -22 23z"/>
<path d="M2487 8322 c-23 -25 -22 -85 1 -105 23 -21 56 -22 73 -1 12 14 14 14
20 -3 4 -10 8 13 8 55 1 42 -3 72 -9 72 -5 0 -10 -5 -10 -12 0 -9 -3 -9 -12 0
-18 18 -53 15 -71 -6z m78 -52 c0 -39 -3 -45 -23 -48 -30 -4 -52 14 -52 43 0
44 11 56 44 53 30 -3 31 -5 31 -48z"/>
<path d="M2630 8270 c0 -82 17 -95 22 -16 4 62 0 86 -13 86 -5 0 -9 -31 -9
-70z"/>
<path d="M2667 8333 c-12 -12 -7 -22 8 -17 8 4 15 10 15 15 0 11 -14 12 -23 2z"/>
<path d="M2730 8270 c0 -40 4 -70 10 -70 6 0 10 30 10 70 0 40 -4 70 -10 70
-6 0 -10 -30 -10 -70z"/>
<path d="M2800 8320 c-28 -28 -27 -84 2 -104 31 -22 64 -20 88 4 41 41 12 120
-45 120 -14 0 -34 -9 -45 -20z m78 -12 c7 -7 12 -24 12 -38 0 -31 -17 -50 -45
-50 -28 0 -45 19 -45 50 0 31 17 50 45 50 12 0 26 -5 33 -12z"/>
<path d="M1132 8203 c2 -13 14 -19 41 -21 22 -2 41 -10 44 -18 7 -18 23 -18
23 1 0 18 -31 35 -64 35 -14 0 -26 5 -26 10 0 6 -5 10 -11 10 -6 0 -9 -8 -7
-17z"/>
<path d="M1770 8023 c0 -29 -3 -34 -12 -25 -34 34 -88 -2 -88 -60 0 -57 59
-91 91 -52 12 14 14 14 20 -3 4 -10 8 26 8 80 1 58 -3 97 -9 97 -5 0 -10 -17
-10 -37z m-5 -83 c0 -39 -3 -45 -23 -48 -30 -4 -52 14 -52 43 0 44 11 56 44
53 30 -3 31 -5 31 -48z"/>
<path d="M2460 8050 c0 -5 5 -10 10 -10 6 0 10 5 10 10 0 6 -4 10 -10 10 -5 0
-10 -4 -10 -10z"/>
<path d="M890 7915 c0 -115 17 -127 22 -16 3 88 1 111 -13 111 -5 0 -9 -43 -9
-95z"/>
<path d="M927 8003 c-14 -14 -6 -19 23 -15 39 6 60 -33 41 -74 -9 -22 -17 -25
-41 -22 -34 5 -41 -7 -10 -17 65 -20 105 69 54 120 -16 15 -55 20 -67 8z"/>
<path d="M1066 7994 c-57 -56 6 -162 64 -109 18 16 20 17 20 2 0 -10 5 -17 10
-17 6 0 10 30 10 70 0 40 -4 70 -10 70 -5 0 -10 -5 -10 -12 0 -9 -3 -9 -12 0
-17 17 -54 15 -72 -4z m72 -16 c15 -15 15 -61 0 -76 -38 -38 -93 12 -70 63 13
27 49 34 70 13z"/>
<path d="M1214 7984 c-13 -19 -15 -32 -8 -51 14 -40 39 -51 72 -32 22 12 27
22 27 52 0 23 5 37 13 37 6 0 12 5 12 10 0 6 -22 10 -50 10 -42 0 -52 -4 -66
-26z m74 -31 c2 -25 -1 -33 -18 -38 -39 -12 -67 34 -38 63 23 23 53 10 56 -25z"/>
<path d="M1376 7994 c-57 -56 6 -162 64 -109 18 16 20 17 20 2 0 -10 5 -17 10
-17 6 0 10 30 10 70 0 40 -4 70 -10 70 -5 0 -10 -5 -10 -12 0 -9 -3 -9 -12 0
-17 17 -54 15 -72 -4z m72 -16 c7 -7 12 -24 12 -38 0 -52 -61 -71 -82 -25 -23
51 32 101 70 63z"/>
<path d="M1520 7940 c0 -40 4 -70 10 -70 6 0 10 22 10 48 0 53 12 72 46 72 26
0 34 -17 34 -76 0 -26 5 -44 11 -44 17 0 6 119 -12 131 -21 13 -46 11 -63 -7
-15 -14 -16 -14 -16 0 0 9 -4 16 -10 16 -6 0 -10 -30 -10 -70z"/>
<path d="M1850 7990 c-28 -28 -27 -84 2 -104 31 -22 64 -20 88 4 41 41 12 120
-45 120 -14 0 -34 -9 -45 -20z m78 -12 c7 -7 12 -24 12 -38 0 -31 -17 -50 -45
-50 -28 0 -45 19 -45 50 0 31 17 50 45 50 12 0 26 -5 33 -12z"/>
<path d="M2050 7940 c0 -82 16 -94 22 -17 4 58 0 87 -13 87 -5 0 -9 -31 -9
-70z"/>
<path d="M2091 7996 c-10 -12 -6 -14 21 -13 l33 2 3 -57 c4 -70 22 -78 22 -10
0 53 12 72 47 72 21 0 23 -4 23 -60 0 -33 4 -60 10 -60 14 0 12 114 -2 128
-16 16 -43 15 -61 -3 -13 -13 -16 -13 -27 0 -16 19 -54 19 -69 1z"/>
<path d="M2317 7992 c-23 -25 -22 -85 1 -105 23 -21 56 -22 73 -1 12 14 14 14
20 -3 4 -10 8 13 8 55 1 42 -3 72 -9 72 -5 0 -10 -5 -10 -12 0 -9 -3 -9 -12 0
-18 18 -53 15 -71 -6z m78 -52 c0 -39 -3 -45 -23 -48 -30 -4 -52 14 -52 43 0
44 11 56 44 53 30 -3 31 -5 31 -48z"/>
<path d="M2460 7940 c0 -40 4 -70 10 -70 6 0 10 30 10 70 0 40 -4 70 -10 70
-6 0 -10 -30 -10 -70z"/>
<path d="M2531 7992 c-13 -24 2 -47 39 -62 17 -7 29 -18 27 -24 -5 -16 -48
-20 -58 -5 -4 8 -11 10 -15 6 -13 -12 18 -37 47 -37 18 0 32 7 39 19 14 28 14
28 -30 56 -23 14 -38 30 -35 35 9 14 43 12 48 -2 2 -7 8 -10 12 -6 13 12 -15
38 -41 38 -13 0 -28 -8 -33 -18z"/>
<path d="M7263 7946 c-152 -49 -255 -204 -239 -360 29 -282 363 -414 570 -225
33 30 66 73 83 107 24 50 28 69 28 147 0 76 -4 99 -26 146 -56 120 -166 191
-299 196 -43 2 -93 -3 -117 -11z m31 -186 c31 -38 60 -70 64 -70 5 0 36 32 71
70 65 73 94 86 125 54 23 -23 20 -48 -11 -86 -60 -73 -288 -333 -298 -340 -29
-21 -85 7 -85 43 0 10 31 55 70 100 l69 82 -44 50 c-43 46 -45 52 -45 108 0
44 4 59 14 59 8 0 39 -31 70 -70z m270 -322 c16 -26 -4 -53 -40 -53 -23 0 -30
5 -32 23 -7 47 47 69 72 30z"/>
<path d="M6647 7900 c-14 -11 -33 -20 -44 -20 -36 -1 52 -39 92 -40 83 -2 132
-33 178 -114 10 -19 17 -24 17 -14 0 20 -31 91 -42 96 -28 13 -89 65 -82 71 5
3 14 13 21 21 10 13 3 15 -51 18 -51 2 -68 -2 -89 -18z"/>
<path d="M1212 7873 c2 -13 14 -19 41 -21 22 -2 41 -10 44 -18 7 -18 23 -18
23 1 0 18 -31 35 -64 35 -14 0 -26 5 -26 10 0 6 -5 10 -11 10 -6 0 -9 -8 -7
-17z"/>
<path d="M6478 7819 c-2 -5 -39 -23 -83 -38 -44 -16 -97 -35 -118 -43 l-38
-15 21 -26 c11 -14 30 -48 42 -74 12 -26 33 -64 48 -83 33 -42 65 -123 57
-145 -4 -8 -2 -15 3 -15 11 0 41 -55 34 -62 -2 -3 17 -5 43 -4 27 0 55 -3 63
-7 14 -6 15 3 9 70 -4 43 -2 86 3 96 6 12 5 17 -5 17 -16 0 -67 96 -67 127 0
12 14 38 31 58 37 41 73 46 114 13 l27 -21 -6 30 c-5 21 -2 34 8 42 8 7 12 19
9 28 -5 12 -17 14 -63 9 -68 -8 -110 5 -110 34 0 21 -16 28 -22 9z"/>
<path d="M6695 7800 c-3 -5 -2 -10 4 -10 5 0 13 5 16 10 3 6 2 10 -4 10 -5 0
-13 -4 -16 -10z"/>
<path d="M890 7710 c0 -5 5 -10 10 -10 6 0 10 5 10 10 0 6 -4 10 -10 10 -5 0
-10 -4 -10 -10z"/>
<path d="M3160 7710 c0 -5 5 -10 10 -10 6 0 10 5 10 10 0 6 -4 10 -10 10 -5 0
-10 -4 -10 -10z"/>
<path d="M1660 7690 c0 -11 -7 -20 -15 -20 -8 0 -15 -4 -15 -10 0 -5 7 -10 15
-10 12 0 15 -13 15 -60 0 -33 4 -60 10 -60 6 0 10 27 10 60 0 47 3 60 15 60 8
0 15 5 15 10 0 6 -7 10 -15 10 -8 0 -15 9 -15 20 0 11 -4 20 -10 20 -5 0 -10
-9 -10 -20z"/>
<path d="M890 7600 c0 -40 4 -70 10 -70 6 0 10 30 10 70 0 40 -4 70 -10 70 -6
0 -10 -30 -10 -70z"/>
<path d="M950 7600 c0 -82 16 -94 22 -17 4 58 0 87 -13 87 -5 0 -9 -31 -9 -70z"/>
<path d="M991 7656 c-10 -12 -6 -14 21 -13 l33 2 3 -57 c4 -70 22 -78 22 -10
0 53 12 72 47 72 21 0 23 -4 23 -60 0 -33 4 -60 10 -60 14 0 12 114 -2 128
-16 16 -43 15 -61 -3 -13 -13 -16 -13 -27 0 -16 19 -54 19 -69 1z"/>
<path d="M1200 7575 c0 -115 17 -127 22 -16 3 88 1 111 -13 111 -5 0 -9 -43
-9 -95z"/>
<path d="M1237 7663 c-14 -14 -6 -19 23 -15 39 6 60 -33 41 -74 -9 -22 -17
-25 -41 -22 -34 5 -41 -7 -10 -17 65 -20 105 69 54 120 -16 15 -55 20 -67 8z"/>
<path d="M1371 7644 c-12 -15 -21 -34 -21 -44 0 -10 9 -29 21 -44 39 -50 112
-22 112 44 0 66 -73 94 -112 44z m90 -21 c15 -41 -3 -73 -41 -73 -39 0 -59 36
-42 75 17 37 69 35 83 -2z"/>
<path d="M1532 7658 c-23 -23 -13 -48 23 -64 40 -16 47 -44 12 -44 -13 0 -28
5 -35 12 -6 6 -14 9 -17 6 -10 -10 26 -38 49 -38 54 0 63 54 11 76 -19 8 -35
21 -35 29 0 17 35 21 45 5 12 -20 26 -10 15 10 -12 22 -49 27 -68 8z"/>
<path d="M1751 7644 c-12 -15 -21 -34 -21 -44 0 -10 9 -29 21 -44 39 -50 112
-22 112 44 0 66 -73 94 -112 44z m90 -21 c15 -41 -3 -73 -41 -73 -39 0 -59 36
-42 75 17 37 69 35 83 -2z"/>
<path d="M1901 7652 c-13 -24 2 -47 39 -62 17 -7 29 -18 27 -24 -5 -16 -48
-20 -58 -5 -4 8 -11 10 -15 6 -13 -12 18 -37 47 -37 18 0 32 7 39 19 14 28 14
28 -30 56 -23 14 -38 30 -35 35 9 14 43 12 48 -2 2 -7 8 -10 12 -6 13 12 -15
38 -41 38 -13 0 -28 -8 -33 -18z"/>
<path d="M2096 7655 c-57 -57 5 -163 64 -110 20 18 20 17 20 -23 0 -23 5 -42
10 -42 6 0 10 38 10 95 0 57 -4 95 -10 95 -11 0 -13 -17 -10 -63 2 -35 -15
-57 -46 -57 -33 0 -52 40 -35 76 9 22 17 25 42 22 18 -3 28 -1 26 6 -6 18 -53
18 -71 1z"/>
<path d="M2240 7612 c0 -32 5 -63 12 -70 16 -16 53 -15 66 1 8 9 3 12 -21 12
-32 0 -32 0 -35 58 -4 75 -22 74 -22 -1z"/>
<path d="M2338 7623 c-4 -60 1 -93 13 -93 5 0 9 32 9 70 0 79 -16 96 -22 23z"/>
<path d="M2410 7650 c-41 -41 -12 -120 44 -120 25 0 62 28 51 38 -3 3 -11 0
-17 -6 -25 -25 -78 -8 -78 25 0 9 16 13 50 13 43 0 50 3 50 19 0 48 -64 67
-100 31z m78 -22 c3 -15 -4 -18 -37 -18 -43 0 -50 7 -29 28 18 18 62 11 66
-10z"/>
<path d="M2600 7575 c0 -57 4 -95 10 -95 6 0 11 19 11 43 1 23 3 56 4 72 3 38
-5 75 -16 75 -5 0 -9 -43 -9 -95z"/>
<path d="M2641 7656 c-9 -11 -6 -12 14 -8 33 6 55 -13 55 -48 0 -35 -22 -54
-55 -48 -20 4 -23 3 -14 -8 30 -36 89 1 89 56 0 55 -59 92 -89 56z"/>
<path d="M2760 7600 c0 -40 4 -70 10 -70 6 0 10 20 10 44 0 36 5 48 27 65 14
12 23 24 20 28 -4 3 -16 -2 -27 -12 -18 -16 -20 -16 -20 -2 0 10 -4 17 -10 17
-6 0 -10 -30 -10 -70z"/>
<path d="M2870 7650 c-41 -41 -12 -120 44 -120 25 0 62 28 51 38 -3 3 -11 0
-17 -6 -25 -25 -78 -8 -78 25 0 9 16 13 50 13 43 0 50 3 50 19 0 48 -64 67
-100 31z m78 -22 c3 -15 -4 -18 -37 -18 -43 0 -50 7 -29 28 18 18 62 11 66
-10z"/>
<path d="M3019 7649 c-30 -30 -23 -88 13 -108 33 -19 81 -5 87 24 3 19 3 19
-16 3 -38 -34 -83 -17 -83 32 0 48 45 67 82 33 16 -15 18 -15 18 0 0 37 -68
49 -101 16z"/>
<path d="M3160 7600 c0 -40 4 -70 10 -70 6 0 10 30 10 70 0 40 -4 70 -10 70
-6 0 -10 -30 -10 -70z"/>
<path d="M3232 7658 c-23 -23 -13 -48 23 -64 40 -16 47 -44 12 -44 -13 0 -28
5 -35 12 -6 6 -14 9 -17 6 -10 -10 26 -38 49 -38 54 0 63 54 11 76 -19 8 -35
21 -35 29 0 17 35 21 45 5 12 -20 26 -10 15 10 -12 22 -49 27 -68 8z"/>
<path d="M3357 7652 c-23 -25 -22 -85 1 -105 23 -21 56 -22 73 -1 12 14 14 14
20 -3 4 -10 8 13 8 55 1 42 -3 72 -9 72 -5 0 -10 -5 -10 -12 0 -9 -3 -9 -12 0
-18 18 -53 15 -71 -6z m78 -52 c0 -39 -3 -45 -23 -48 -30 -4 -52 14 -52 43 0
44 11 56 44 53 30 -3 31 -5 31 -48z"/>
<path d="M6716 7565 c4 -8 8 -15 10 -15 2 0 4 7 4 15 0 8 -4 15 -10 15 -5 0
-7 -7 -4 -15z"/>
<path d="M3507 7553 c-12 -11 -8 -23 8 -23 8 0 15 7 15 15 0 16 -12 20 -23 8z"/>
<path d="M998 7470 c-30 -9 -78 -40 -62 -40 5 0 14 4 20 9 5 5 26 14 47 19 44
12 92 1 133 -30 23 -18 26 -19 14 -4 -17 21 -87 56 -110 55 -8 0 -27 -4 -42
-9z"/>
<path d="M8130 7315 c0 -57 4 -95 10 -95 6 0 10 19 10 43 0 54 18 80 51 75 22
-3 24 -8 27 -60 2 -32 7 -58 12 -58 13 0 13 96 0 121 -13 23 -47 25 -72 2 -17
-15 -18 -14 -18 25 0 23 -4 42 -10 42 -6 0 -10 -38 -10 -95z"/>
<path d="M9510 7400 c0 -5 7 -10 15 -10 8 0 15 5 15 10 0 6 -7 10 -15 10 -8 0
-15 -4 -15 -10z"/>
<path d="M7834 7328 c-15 -40 -31 -81 -36 -90 -6 -12 -5 -18 2 -18 6 0 15 11
20 25 8 21 16 25 50 25 33 0 42 -4 52 -25 6 -14 15 -25 19 -25 7 0 -42 147
-57 171 -12 20 -24 5 -50 -63z m66 -25 c0 -8 -12 -13 -30 -13 -35 0 -35 -1
-14 48 l16 37 14 -30 c7 -16 13 -36 14 -42z"/>
<path d="M2670 7380 c0 -5 5 -10 10 -10 6 0 10 5 10 10 0 6 -4 10 -10 10 -5 0
-10 -4 -10 -10z"/>
<path d="M2980 7353 c0 -29 -3 -34 -12 -25 -34 34 -88 -2 -88 -60 0 -57 59
-91 91 -52 12 14 14 14 20 -3 4 -10 8 26 8 80 1 58 -3 97 -9 97 -5 0 -10 -17
-10 -37z m-5 -83 c0 -39 -3 -45 -23 -48 -30 -4 -52 14 -52 43 0 44 11 56 44
53 30 -3 31 -5 31 -48z"/>
<path d="M1292 7372 c2 -4 16 -45 32 -90 16 -45 34 -82 40 -82 6 0 25 41 43
90 17 50 28 90 23 90 -7 0 -24 -39 -56 -129 -7 -21 -18 -4 -44 67 -12 34 -27
62 -32 62 -5 0 -8 -4 -6 -8z"/>
<path d="M2225 7363 c-4 -13 -14 -23 -21 -23 -8 0 -14 -4 -14 -10 0 -5 7 -10
15 -10 12 0 15 -13 15 -60 0 -33 4 -60 10 -60 6 0 10 27 10 60 0 47 3 60 15
60 8 0 15 5 15 10 0 6 -6 10 -14 10 -8 0 -17 10 -19 23 l-4 22 -8 -22z"/>
<path d="M7991 7334 c-12 -15 -21 -34 -21 -44 0 -30 39 -70 69 -70 29 0 70 34
57 47 -4 5 -12 0 -17 -10 -6 -10 -22 -17 -40 -17 -38 0 -58 37 -41 75 14 30
65 35 81 8 5 -10 13 -15 17 -10 13 13 -28 47 -57 47 -18 0 -35 -9 -48 -26z"/>
<path d="M8306 7344 c-57 -56 6 -162 64 -109 18 16 20 17 20 2 0 -10 5 -17 10
-17 6 0 10 30 10 70 0 40 -4 70 -10 70 -5 0 -10 -5 -10 -12 0 -9 -3 -9 -12 0
-17 17 -54 15 -72 -4z m72 -16 c7 -7 12 -24 12 -38 0 -52 -61 -71 -82 -25 -23
51 32 101 70 63z"/>
<path d="M8450 7290 c0 -40 4 -70 10 -70 6 0 10 22 10 48 0 53 12 72 46 72 26
0 34 -17 34 -76 0 -65 18 -54 22 14 3 56 3 57 33 57 30 0 30 -1 33 -57 2 -32
7 -58 12 -58 13 0 13 96 0 121 -13 23 -52 25 -70 4 -11 -13 -14 -13 -27 0 -19
19 -48 19 -67 -1 -15 -14 -16 -14 -16 0 0 9 -4 16 -10 16 -6 0 -10 -30 -10
-70z"/>
<path d="M8711 7334 c-12 -15 -21 -34 -21 -44 0 -10 9 -29 21 -44 39 -50 112
-22 112 44 0 66 -73 94 -112 44z m90 -21 c15 -41 -3 -73 -41 -73 -39 0 -59 36
-42 75 17 37 69 35 83 -2z"/>
<path d="M8861 7342 c-13 -24 2 -47 39 -62 17 -7 29 -18 27 -24 -5 -16 -48
-20 -58 -5 -4 8 -11 10 -15 6 -13 -12 18 -37 47 -37 18 0 32 7 39 19 14 28 14
28 -30 56 -23 14 -38 30 -35 35 9 14 43 12 48 -2 2 -7 8 -10 12 -6 13 12 -15
38 -41 38 -13 0 -28 -8 -33 -18z"/>
<path d="M9056 7344 c-57 -56 6 -162 64 -109 18 16 20 17 20 2 0 -10 5 -17 10
-17 6 0 10 30 10 70 0 40 -4 70 -10 70 -5 0 -10 -5 -10 -12 0 -9 -3 -9 -12 0
-17 17 -54 15 -72 -4z m72 -16 c7 -7 12 -24 12 -38 0 -52 -61 -71 -82 -25 -23
51 32 101 70 63z"/>
<path d="M9216 7345 c-57 -57 5 -163 64 -110 20 18 20 17 20 -23 0 -23 5 -42
10 -42 6 0 10 38 10 95 0 57 -4 95 -10 95 -11 0 -13 -17 -10 -63 2 -35 -15
-57 -46 -57 -33 0 -52 40 -35 76 9 22 17 25 42 22 18 -3 28 -1 26 6 -6 18 -53
18 -71 1z"/>
<path d="M9360 7302 c0 -32 5 -63 12 -70 16 -16 53 -15 66 1 8 9 3 12 -21 12
-32 0 -32 0 -35 58 -4 75 -22 74 -22 -1z"/>
<path d="M9458 7313 c-4 -60 1 -93 13 -93 5 0 9 32 9 70 0 79 -16 96 -22 23z"/>
<path d="M9520 7290 c0 -40 4 -70 10 -70 6 0 10 30 10 70 0 40 -4 70 -10 70
-6 0 -10 -30 -10 -70z"/>
<path d="M9651 7334 c-12 -15 -21 -34 -21 -44 0 -10 9 -29 21 -44 39 -50 112
-22 112 44 0 66 -73 94 -112 44z m90 -21 c15 -41 -3 -73 -41 -73 -39 0 -59 36
-42 75 17 37 69 35 83 -2z"/>
<path d="M1467 7322 c-23 -25 -22 -85 1 -105 23 -21 56 -22 73 -1 12 14 14 14
20 -3 4 -10 8 13 8 55 1 42 -3 72 -9 72 -5 0 -10 -5 -10 -12 0 -9 -3 -9 -12 0
-18 18 -53 15 -71 -6z m78 -52 c0 -39 -3 -45 -23 -48 -30 -4 -52 14 -52 43 0
44 11 56 44 53 30 -3 31 -5 31 -48z"/>
<path d="M1610 7270 c0 -82 16 -94 22 -17 4 58 0 87 -13 87 -5 0 -9 -31 -9
-70z"/>
<path d="M1651 7326 c-10 -12 -6 -14 21 -13 l33 2 3 -57 c4 -70 22 -78 22 -10
0 53 12 72 47 72 21 0 23 -4 23 -60 0 -33 4 -60 10 -60 14 0 12 114 -2 128
-16 16 -43 15 -61 -3 -13 -13 -16 -13 -27 0 -16 19 -54 19 -69 1z"/>
<path d="M1880 7320 c-28 -28 -27 -84 2 -104 31 -22 64 -20 88 4 41 41 12 120
-45 120 -14 0 -34 -9 -45 -20z m78 -12 c7 -7 12 -24 12 -38 0 -31 -17 -50 -45
-50 -28 0 -45 19 -45 50 0 31 17 50 45 50 12 0 26 -5 33 -12z"/>
<path d="M2032 7328 c-23 -23 -13 -48 23 -64 40 -16 47 -44 12 -44 -13 0 -28
5 -35 12 -6 6 -14 9 -17 6 -10 -10 26 -38 49 -38 54 0 63 54 11 76 -19 8 -35
21 -35 29 0 17 35 21 45 5 12 -20 26 -10 15 10 -12 22 -49 27 -68 8z"/>
<path d="M2311 7314 c-12 -15 -21 -34 -21 -44 0 -31 39 -70 70 -70 29 0 59 25
45 38 -4 4 -10 1 -12 -5 -7 -21 -61 -16 -73 6 -15 30 -14 31 45 31 60 0 67 9
39 48 -22 31 -67 29 -93 -4z m78 -7 c15 -19 4 -27 -36 -27 -31 0 -44 16 -26
33 11 12 50 8 62 -6z"/>
<path d="M2526 7324 c-57 -56 6 -162 64 -109 18 16 20 17 20 2 0 -10 5 -17 10
-17 6 0 10 30 10 70 0 40 -4 70 -10 70 -5 0 -10 -5 -10 -12 0 -9 -3 -9 -12 0
-17 17 -54 15 -72 -4z m72 -16 c7 -7 12 -24 12 -38 0 -52 -61 -71 -82 -25 -23
51 32 101 70 63z"/>
<path d="M2670 7245 c0 -57 4 -95 10 -95 6 0 10 38 10 95 0 57 -4 95 -10 95
-6 0 -10 -38 -10 -95z"/>
<path d="M2730 7282 c0 -32 5 -63 12 -70 16 -16 53 -15 66 1 8 9 3 12 -21 12
-32 0 -32 0 -35 58 -4 75 -22 74 -22 -1z"/>
<path d="M2828 7293 c-4 -60 1 -93 13 -93 5 0 9 32 9 70 0 79 -16 96 -22 23z"/>
<path d="M3066 7324 c-57 -56 6 -162 64 -109 18 16 20 17 20 2 0 -10 5 -17 10
-17 6 0 10 30 10 70 0 40 -4 70 -10 70 -5 0 -10 -5 -10 -12 0 -9 -3 -9 -12 0
-17 17 -54 15 -72 -4z m72 -16 c7 -7 12 -24 12 -38 0 -52 -61 -71 -82 -25 -23
51 32 101 70 63z"/>
<path d="M3210 7270 c0 -82 17 -95 22 -16 4 62 0 86 -13 86 -5 0 -9 -31 -9
-70z"/>
<path d="M3247 7333 c-12 -12 -7 -22 8 -17 8 4 15 10 15 15 0 11 -14 12 -23 2z"/>
<path d="M3376 7324 c-57 -56 6 -162 64 -109 18 16 20 17 20 2 0 -10 5 -17 10
-17 6 0 10 30 10 70 0 40 -4 70 -10 70 -5 0 -10 -5 -10 -12 0 -9 -3 -9 -12 0
-17 17 -54 15 -72 -4z m72 -16 c7 -7 12 -24 12 -38 0 -52 -61 -71 -82 -25 -23
51 32 101 70 63z"/>
<path d="M7111 7277 c-7 -21 -11 -41 -8 -44 9 -9 28 37 25 60 -3 18 -6 15 -17
-16z"/>
<path d="M1009 7276 c-7 -14 -9 -36 -5 -51 5 -21 12 -26 34 -23 24 3 27 8 30
42 5 56 -38 79 -59 32z"/>
<path d="M900 7270 c0 -5 7 -7 15 -4 8 4 23 0 33 -7 15 -13 16 -12 3 4 -14 18
-51 24 -51 7z"/>
<path d="M1124 7258 l-19 -23 22 19 c12 10 29 16 38 13 8 -4 15 -2 15 3 0 18
-37 10 -56 -12z"/>
<path d="M4245 7069 c-4 -6 -5 -12 -2 -15 2 -3 7 2 10 11 7 17 1 20 -8 4z"/>
<path d="M7980 6975 c0 -57 4 -95 10 -95 6 0 10 7 10 17 0 15 1 15 18 0 26
-23 58 -21 76 5 46 66 -19 153 -76 101 -17 -15 -18 -14 -18 25 0 23 -4 42 -10
42 -6 0 -10 -38 -10 -95z m98 13 c7 -7 12 -24 12 -38 0 -52 -61 -71 -82 -25
-23 51 32 101 70 63z"/>
<path d="M8150 6975 c0 -57 4 -95 10 -95 6 0 10 38 10 95 0 57 -4 95 -10 95
-6 0 -10 -38 -10 -95z"/>
<path d="M8600 7060 c0 -5 7 -10 15 -10 8 0 15 5 15 10 0 6 -7 10 -15 10 -8 0
-15 -4 -15 -10z"/>
<path d="M8830 6975 c0 -100 16 -132 22 -42 4 73 -1 137 -13 137 -5 0 -9 -42
-9 -95z"/>
<path d="M1390 7013 c0 -29 -3 -34 -12 -25 -34 34 -88 -2 -88 -60 0 -57 59
-91 91 -52 12 14 14 14 20 -3 4 -10 8 26 8 80 1 58 -3 97 -9 97 -5 0 -10 -17
-10 -37z m-5 -83 c0 -39 -3 -45 -23 -48 -30 -4 -52 14 -52 43 0 44 11 56 44
53 30 -3 31 -5 31 -48z"/>
<path d="M1770 7040 c0 -5 5 -10 10 -10 6 0 10 5 10 10 0 6 -4 10 -10 10 -5 0
-10 -4 -10 -10z"/>
<path d="M2240 6985 c0 -37 4 -65 10 -65 6 0 10 28 10 65 0 37 -4 65 -10 65
-6 0 -10 -28 -10 -65z"/>
<path d="M7042 7015 c-14 -31 -15 -45 -3 -45 8 0 24 60 18 67 -2 2 -9 -8 -15
-22z"/>
<path d="M7570 6925 c0 -115 17 -127 22 -16 3 88 1 111 -13 111 -5 0 -9 -43
-9 -95z"/>
<path d="M7607 7013 c-14 -14 -6 -19 23 -15 24 3 32 0 41 -22 19 -41 -2 -80
-41 -74 -34 5 -41 -7 -10 -17 65 -20 105 69 54 120 -16 15 -55 20 -67 8z"/>
<path d="M7730 6950 c0 -82 17 -95 22 -16 4 62 0 86 -13 86 -5 0 -9 -31 -9
-70z"/>
<path d="M7767 7013 c-12 -12 -7 -22 8 -17 8 4 15 10 15 15 0 11 -14 12 -23 2z"/>
<path d="M7831 6994 c-12 -15 -21 -34 -21 -44 0 -10 9 -29 21 -44 39 -50 112
-22 112 44 0 66 -73 94 -112 44z m90 -21 c15 -41 -3 -73 -41 -73 -39 0 -59 36
-42 75 17 37 69 35 83 -2z"/>
<path d="M8220 7000 c-41 -41 -12 -120 44 -120 25 0 62 28 51 38 -3 3 -11 0
-17 -6 -25 -25 -78 -8 -78 25 0 9 16 13 50 13 43 0 50 3 50 19 0 48 -64 67
-100 31z m78 -22 c3 -15 -4 -18 -37 -18 -43 0 -50 7 -29 28 18 18 62 11 66
-10z"/>
<path d="M8350 6950 c0 -82 16 -94 22 -17 4 58 0 87 -13 87 -5 0 -9 -31 -9
-70z"/>
<path d="M8391 7006 c-10 -12 -6 -14 21 -13 l33 2 3 -57 c4 -70 22 -78 22 -10
0 53 12 72 47 72 21 0 23 -4 23 -60 0 -33 4 -60 10 -60 14 0 12 114 -2 128
-16 16 -43 15 -61 -3 -13 -13 -16 -13 -27 0 -16 19 -54 19 -69 1z"/>
<path d="M8610 6950 c0 -40 4 -70 10 -70 6 0 10 30 10 70 0 40 -4 70 -10 70
-6 0 -10 -30 -10 -70z"/>
<path d="M8670 6950 c0 -40 4 -70 10 -70 6 0 10 22 10 48 0 53 12 72 46 72 26
0 34 -17 34 -76 0 -26 5 -44 11 -44 17 0 6 119 -12 131 -21 13 -46 11 -63 -7
-15 -14 -16 -14 -16 0 0 9 -4 16 -10 16 -6 0 -10 -30 -10 -70z"/>
<path d="M8867 7013 c-13 -13 -7 -19 21 -18 26 0 27 -2 30 -57 2 -32 7 -58 12
-58 14 0 12 114 -2 128 -13 13 -50 16 -61 5z"/>
<path d="M8996 7004 c-57 -56 6 -162 64 -109 18 16 20 17 20 2 0 -10 5 -17 10
-17 6 0 10 30 10 70 0 40 -4 70 -10 70 -5 0 -10 -5 -10 -12 0 -9 -3 -9 -12 0
-17 17 -54 15 -72 -4z m72 -16 c7 -7 12 -24 12 -38 0 -52 -61 -71 -82 -25 -23
51 32 101 70 63z"/>
<path d="M9250 6978 c0 -24 3 -53 6 -66 8 -28 50 -40 71 -20 13 14 12 15 -12
10 -35 -6 -45 10 -45 71 0 26 -4 47 -10 47 -5 0 -10 -19 -10 -42z"/>
<path d="M9350 6950 c0 -40 4 -70 10 -70 6 0 10 30 10 70 0 40 -4 70 -10 70
-6 0 -10 -30 -10 -70z"/>
<path d="M9410 6950 c0 -40 4 -70 10 -70 6 0 10 22 10 48 0 53 12 72 46 72 26
0 34 -17 34 -76 0 -65 18 -54 22 14 3 56 3 57 33 57 30 0 30 -1 33 -57 2 -32
7 -58 12 -58 13 0 13 96 0 121 -13 23 -52 25 -70 4 -11 -13 -14 -13 -27 0 -19
19 -48 19 -67 -1 -15 -14 -16 -14 -16 0 0 9 -4 16 -10 16 -6 0 -10 -30 -10
-70z"/>
<path d="M890 6930 c0 -40 4 -70 10 -70 6 0 10 22 10 48 0 53 12 72 46 72 26
0 34 -17 34 -76 0 -65 18 -54 22 14 3 56 3 57 33 57 30 0 30 -1 33 -57 2 -32
7 -58 12 -58 13 0 13 96 0 121 -13 23 -52 25 -70 4 -11 -13 -14 -13 -27 0 -19
19 -48 19 -67 -1 -15 -14 -16 -14 -16 0 0 9 -4 16 -10 16 -6 0 -10 -30 -10
-70z"/>
<path d="M1140 6942 c0 -32 5 -63 12 -70 16 -16 53 -15 66 1 8 9 3 12 -21 12
-32 0 -32 0 -35 58 -4 75 -22 74 -22 -1z"/>
<path d="M1238 6953 c-4 -60 1 -93 13 -93 5 0 9 32 9 70 0 79 -16 96 -22 23z"/>
<path d="M1476 6984 c-57 -56 6 -162 64 -109 18 16 20 17 20 2 0 -10 5 -17 10
-17 6 0 10 30 10 70 0 40 -4 70 -10 70 -5 0 -10 -5 -10 -12 0 -9 -3 -9 -12 0
-17 17 -54 15 -72 -4z m72 -16 c7 -7 12 -24 12 -38 0 -52 -61 -71 -82 -25 -23
51 32 101 70 63z"/>
<path d="M1610 6930 c0 -40 4 -70 10 -70 6 0 10 20 10 44 0 36 5 48 27 65 14
12 23 24 20 28 -4 3 -16 -2 -27 -12 -18 -16 -20 -16 -20 -2 0 10 -4 17 -10 17
-6 0 -10 -30 -10 -70z"/>
<path d="M1770 6930 c0 -40 4 -70 10 -70 6 0 10 30 10 70 0 40 -4 70 -10 70
-6 0 -10 -30 -10 -70z"/>
<path d="M1842 6988 c-23 -23 -13 -48 23 -64 40 -16 47 -44 12 -44 -13 0 -28
5 -35 12 -6 6 -14 9 -17 6 -10 -10 26 -38 49 -38 54 0 63 54 11 76 -19 8 -35
21 -35 29 0 17 35 21 45 5 12 -20 26 -10 15 10 -12 22 -49 27 -68 8z"/>
<path d="M1961 6982 c-13 -24 2 -47 39 -62 17 -7 29 -18 27 -24 -5 -16 -48
-20 -58 -5 -4 8 -11 10 -15 6 -13 -12 18 -37 47 -37 18 0 32 7 39 19 14 28 14
28 -30 56 -23 14 -38 30 -35 35 9 14 43 12 48 -2 2 -7 8 -10 12 -6 13 12 -15
38 -41 38 -13 0 -28 -8 -33 -18z"/>
<path d="M2091 6974 c-12 -15 -21 -34 -21 -44 0 -10 9 -29 21 -44 39 -50 112
-22 112 44 0 66 -73 94 -112 44z m90 -21 c15 -41 -3 -73 -41 -73 -39 0 -59 36
-42 75 17 37 69 35 83 -2z"/>
<path d="M4200 6969 c-7 -11 -10 -23 -7 -25 2 -2 9 7 15 21 14 30 7 33 -8 4z"/>
<path d="M7031 6944 c0 -11 3 -14 6 -6 3 7 2 16 -1 19 -3 4 -6 -2 -5 -13z"/>
<path d="M9134 6899 c-3 -6 -1 -15 6 -19 7 -4 9 -13 5 -20 -5 -9 -4 -11 3 -6
14 9 16 56 3 56 -6 0 -13 -5 -17 -11z"/>
<path d="M2240 6876 c0 -9 7 -16 16 -16 17 0 14 22 -4 28 -7 2 -12 -3 -12 -12z"/>
<path d="M7000 6870 c8 -5 20 -10 25 -10 6 0 3 5 -5 10 -8 5 -19 10 -25 10 -5
0 -3 -5 5 -10z"/>
<path d="M7570 6730 c0 -5 5 -10 10 -10 6 0 10 5 10 10 0 6 -4 10 -10 10 -5 0
-10 -4 -10 -10z"/>
<path d="M8340 6710 c0 -11 -7 -20 -15 -20 -8 0 -15 -4 -15 -10 0 -5 7 -10 15
-10 12 0 15 -13 15 -60 0 -33 4 -60 10 -60 6 0 10 27 10 60 0 47 3 60 15 60 8
0 15 5 15 10 0 6 -7 10 -15 10 -8 0 -15 9 -15 20 0 11 -4 20 -10 20 -5 0 -10
-9 -10 -20z"/>
<path d="M7570 6620 c0 -40 4 -70 10 -70 6 0 10 30 10 70 0 40 -4 70 -10 70
-6 0 -10 -30 -10 -70z"/>
<path d="M7630 6620 c0 -82 16 -94 22 -17 4 58 0 87 -13 87 -5 0 -9 -31 -9
-70z"/>
<path d="M7671 6676 c-10 -12 -6 -14 21 -13 l33 2 3 -57 c4 -70 22 -78 22 -10
0 53 12 72 47 72 21 0 23 -4 23 -60 0 -33 4 -60 10 -60 14 0 12 114 -2 128
-16 16 -43 15 -61 -3 -13 -13 -16 -13 -27 0 -16 19 -54 19 -69 1z"/>
<path d="M7880 6595 c0 -115 17 -127 22 -16 3 88 1 111 -13 111 -5 0 -9 -43
-9 -95z"/>
<path d="M7917 6683 c-14 -14 -6 -19 23 -15 24 3 32 0 41 -22 19 -41 -2 -80
-41 -74 -34 5 -41 -7 -10 -17 65 -20 105 69 54 120 -16 15 -55 20 -67 8z"/>
<path d="M8051 6664 c-12 -15 -21 -34 -21 -44 0 -10 9 -29 21 -44 39 -50 112
-22 112 44 0 66 -73 94 -112 44z m90 -21 c15 -41 -3 -73 -41 -73 -39 0 -59 36
-42 75 17 37 69 35 83 -2z"/>
<path d="M8212 6678 c-23 -23 -13 -48 23 -64 40 -16 47 -44 12 -44 -13 0 -28
5 -35 12 -6 6 -14 9 -17 6 -10 -10 26 -38 49 -38 54 0 63 54 11 76 -19 8 -35
21 -35 29 0 17 35 21 45 5 12 -20 26 -10 15 10 -12 22 -49 27 -68 8z"/>
<path d="M8431 6664 c-12 -15 -21 -34 -21 -44 0 -10 9 -29 21 -44 39 -50 112
-22 112 44 0 66 -73 94 -112 44z m90 -21 c15 -41 -3 -73 -41 -73 -39 0 -59 36
-42 75 17 37 69 35 83 -2z"/>
<path d="M8647 6672 c-23 -25 -22 -85 1 -105 22 -20 53 -22 70 -5 9 9 12 4 12
-25 0 -20 5 -37 10 -37 6 0 10 38 10 95 0 57 -4 95 -10 95 -5 0 -10 -5 -10
-12 0 -9 -3 -9 -12 0 -18 18 -53 15 -71 -6z m78 -52 c0 -39 -3 -45 -23 -48
-30 -4 -52 14 -52 43 0 44 11 56 44 53 30 -3 31 -5 31 -48z"/>
<path d="M8800 6632 c0 -32 5 -63 12 -70 16 -16 53 -15 66 1 8 9 3 12 -21 12
-32 0 -32 0 -35 58 -4 75 -22 74 -22 -1z"/>
<path d="M8898 6643 c-4 -60 1 -93 13 -93 5 0 9 32 9 70 0 79 -16 96 -22 23z"/>
<path d="M8970 6670 c-41 -41 -12 -120 44 -120 25 0 62 28 51 38 -3 3 -11 0
-17 -6 -25 -25 -78 -8 -78 25 0 9 16 13 50 13 43 0 50 3 50 19 0 48 -64 67
-100 31z m78 -22 c3 -15 -4 -18 -37 -18 -43 0 -50 7 -29 28 18 18 62 11 66
-10z"/>
<path d="M9172 6678 c-23 -23 -13 -48 23 -64 40 -16 47 -44 12 -44 -13 0 -28
5 -35 12 -6 6 -14 9 -17 6 -10 -10 26 -38 49 -38 54 0 63 54 11 76 -19 8 -35
21 -35 29 0 17 35 21 45 5 12 -20 26 -10 15 10 -12 22 -49 27 -68 8z"/>
<path d="M9280 6648 c0 -24 3 -53 6 -66 8 -28 50 -40 71 -20 13 14 12 15 -12
10 -35 -6 -45 10 -45 71 0 26 -4 47 -10 47 -5 0 -10 -19 -10 -42z"/>
<path d="M9380 6620 c0 -40 4 -70 10 -70 6 0 10 30 10 70 0 40 -4 70 -10 70
-6 0 -10 -30 -10 -70z"/>
<path d="M9456 6674 c-57 -56 6 -162 64 -109 18 16 20 17 20 2 0 -10 5 -17 10
-17 6 0 10 30 10 70 0 40 -4 70 -10 70 -5 0 -10 -5 -10 -12 0 -9 -3 -9 -12 0
-17 17 -54 15 -72 -4z m72 -16 c7 -7 12 -24 12 -38 0 -52 -61 -71 -82 -25 -23
51 32 101 70 63z"/>
<path d="M7980 6390 c0 -5 7 -10 15 -10 8 0 15 5 15 10 0 6 -7 10 -15 10 -8 0
-15 -4 -15 -10z"/>
<path d="M9140 6305 c0 -100 16 -132 22 -42 4 73 -1 137 -13 137 -5 0 -9 -42
-9 -95z"/>
<path d="M9290 6390 c0 -5 7 -10 15 -10 8 0 15 5 15 10 0 6 -7 10 -15 10 -8 0
-15 -4 -15 -10z"/>
<path d="M9360 6305 c0 -57 4 -95 10 -95 6 0 10 38 10 95 0 57 -4 95 -10 95
-6 0 -10 -38 -10 -95z"/>
<path d="M9420 6390 c0 -5 7 -10 15 -10 8 0 15 5 15 10 0 6 -7 10 -15 10 -8 0
-15 -4 -15 -10z"/>
<path d="M9580 6363 c0 -29 -3 -34 -12 -25 -34 34 -88 -2 -88 -60 0 -57 59
-91 91 -52 12 14 14 14 20 -3 4 -10 8 26 8 80 1 58 -3 97 -9 97 -5 0 -10 -17
-10 -37z m-5 -83 c0 -39 -3 -45 -23 -48 -30 -4 -52 14 -52 43 0 44 11 56 44
53 30 -3 31 -5 31 -48z"/>
<path d="M9909 6358 c-1 -24 0 -56 1 -71 2 -35 -15 -57 -46 -57 -33 0 -52 40
-35 76 9 22 17 25 42 22 18 -3 28 -1 26 6 -5 15 -42 19 -66 7 -24 -13 -35 -59
-22 -94 13 -35 55 -46 81 -22 18 16 20 17 20 2 0 -10 5 -17 10 -17 6 0 10 38
10 95 0 57 -4 95 -10 95 -5 0 -10 -19 -11 -42z"/>
<path d="M7905 6373 c-4 -13 -14 -23 -21 -23 -8 0 -14 -4 -14 -10 0 -5 7 -10
15 -10 12 0 15 -13 15 -60 0 -33 4 -60 10 -60 6 0 10 27 10 60 0 47 3 60 15
60 8 0 15 5 15 10 0 6 -6 10 -14 10 -8 0 -17 10 -19 23 l-4 22 -8 -22z"/>
<path d="M8900 6370 c0 -11 -7 -20 -15 -20 -8 0 -15 -4 -15 -10 0 -5 7 -10 15
-10 12 0 15 -13 15 -60 0 -33 4 -60 10 -60 6 0 10 27 10 60 0 47 3 60 15 60 8
0 15 5 15 10 0 6 -7 10 -15 10 -8 0 -15 9 -15 20 0 11 -4 20 -10 20 -5 0 -10
-9 -10 -20z"/>
<path d="M7586 6334 c-57 -56 6 -162 64 -109 18 16 20 17 20 2 0 -10 5 -17 10
-17 6 0 10 30 10 70 0 40 -4 70 -10 70 -5 0 -10 -5 -10 -12 0 -9 -3 -9 -12 0
-17 17 -54 15 -72 -4z m72 -16 c7 -7 12 -24 12 -38 0 -52 -61 -71 -82 -25 -23
51 32 101 70 63z"/>
<path d="M7730 6280 c0 -40 4 -70 10 -70 6 0 10 22 10 48 0 53 12 72 46 72 26
0 34 -17 34 -76 0 -26 5 -44 11 -44 17 0 6 119 -12 131 -21 13 -46 11 -63 -7
-15 -14 -16 -14 -16 0 0 9 -4 16 -10 16 -6 0 -10 -30 -10 -70z"/>
<path d="M7990 6280 c0 -40 4 -70 10 -70 6 0 10 30 10 70 0 40 -4 70 -10 70
-6 0 -10 -30 -10 -70z"/>
<path d="M8056 6334 c-22 -21 -20 -67 3 -88 39 -35 100 7 87 60 -5 17 -2 24 9
24 8 0 15 5 15 10 0 17 -97 12 -114 -6z m70 -30 c8 -33 -15 -59 -45 -49 -15 4
-21 15 -21 34 0 34 7 41 36 41 17 0 25 -7 30 -26z"/>
<path d="M8207 6332 c-23 -25 -22 -85 1 -105 23 -21 56 -22 73 -1 12 14 14 14
20 -3 4 -10 8 13 8 55 1 42 -3 72 -9 72 -5 0 -10 -5 -10 -12 0 -9 -3 -9 -12 0
-18 18 -53 15 -71 -6z m78 -52 c0 -39 -3 -45 -23 -48 -30 -4 -52 14 -52 43 0
44 11 56 44 53 30 -3 31 -5 31 -48z"/>
<path d="M8429 6329 c-30 -30 -23 -88 13 -108 33 -19 81 -5 87 24 3 19 3 19
-16 3 -38 -34 -83 -17 -83 32 0 48 45 67 82 33 16 -15 18 -15 18 0 0 37 -68
49 -101 16z"/>
<path d="M8581 6324 c-12 -15 -21 -34 -21 -44 0 -10 9 -29 21 -44 39 -50 112
-22 112 44 0 66 -73 94 -112 44z m90 -21 c15 -41 -3 -73 -41 -73 -39 0 -59 36
-42 75 17 37 69 35 83 -2z"/>
<path d="M8720 6280 c0 -82 16 -94 22 -17 4 58 0 87 -13 87 -5 0 -9 -31 -9
-70z"/>
<path d="M8761 6336 c-10 -12 -6 -14 21 -13 l33 2 3 -57 c2 -32 7 -58 12 -58
14 0 12 114 -2 128 -16 16 -53 15 -67 -2z"/>
<path d="M8987 6332 c-23 -25 -22 -85 1 -105 23 -21 56 -22 73 -1 12 14 14 14
20 -3 4 -10 8 13 8 55 1 42 -3 72 -9 72 -5 0 -10 -5 -10 -12 0 -9 -3 -9 -12 0
-18 18 -53 15 -71 -6z m78 -52 c0 -39 -3 -45 -23 -48 -30 -4 -52 14 -52 43 0
44 11 56 44 53 30 -3 31 -5 31 -48z"/>
<path d="M9177 6343 c-14 -14 -6 -19 23 -15 24 3 32 0 41 -22 19 -41 -2 -80
-41 -74 -31 5 -41 -8 -15 -18 64 -25 110 70 59 121 -16 15 -55 20 -67 8z"/>
<path d="M9300 6280 c0 -40 4 -70 10 -70 6 0 10 30 10 70 0 40 -4 70 -10 70
-6 0 -10 -30 -10 -70z"/>
<path d="M9430 6280 c0 -40 4 -70 10 -70 6 0 10 30 10 70 0 40 -4 70 -10 70
-6 0 -10 -30 -10 -70z"/>
<path d="M9666 6334 c-57 -56 6 -162 64 -109 18 16 20 17 20 2 0 -10 5 -17 10
-17 6 0 10 30 10 70 0 40 -4 70 -10 70 -5 0 -10 -5 -10 -12 0 -9 -3 -9 -12 0
-17 17 -54 15 -72 -4z m72 -16 c7 -7 12 -24 12 -38 0 -52 -61 -71 -82 -25 -23
51 32 101 70 63z"/>
<path d="M9990 6330 c-41 -41 -12 -120 44 -120 25 0 62 28 51 38 -3 3 -11 0
-17 -6 -25 -25 -78 -8 -78 25 0 9 16 13 50 13 43 0 50 3 50 19 0 48 -64 67
-100 31z m78 -22 c3 -15 -4 -18 -37 -18 -43 0 -50 7 -29 28 18 18 62 11 66
-10z"/>
<path d="M8042 6213 c2 -13 15 -19 43 -21 22 -2 44 -11 51 -20 18 -25 26 -9 8
16 -11 15 -25 22 -50 22 -19 0 -34 5 -34 10 0 6 -5 10 -11 10 -6 0 -9 -8 -7
-17z"/>
<path d="M7669 6028 c-1 -24 0 -56 1 -71 2 -35 -15 -57 -46 -57 -33 0 -52 40
-35 76 9 22 17 25 42 22 18 -3 28 -1 26 6 -5 15 -42 19 -66 7 -24 -13 -35 -59
-22 -94 13 -35 55 -46 81 -22 18 16 20 17 20 2 0 -10 5 -17 10 -17 6 0 10 38
10 95 0 57 -4 95 -10 95 -5 0 -10 -19 -11 -42z"/>
<path d="M7880 6060 c0 -5 7 -10 15 -10 8 0 15 5 15 10 0 6 -7 10 -15 10 -8 0
-15 -4 -15 -10z"/>
<path d="M7750 6000 c-41 -41 -12 -120 44 -120 25 0 62 28 51 38 -3 3 -11 0
-17 -6 -25 -25 -78 -8 -78 25 0 9 16 13 50 13 43 0 50 3 50 19 0 48 -64 67
-100 31z m78 -22 c3 -15 -4 -18 -37 -18 -43 0 -50 7 -29 28 18 18 62 11 66
-10z"/>
<path d="M7890 5950 c0 -40 4 -70 10 -70 6 0 10 30 10 70 0 40 -4 70 -10 70
-6 0 -10 -30 -10 -70z"/>
<path d="M7960 5984 l23 -36 -23 -30 c-28 -38 -16 -51 14 -14 l22 29 21 -27
c12 -14 26 -26 32 -26 7 0 0 16 -15 35 l-27 36 22 30 c29 39 17 52 -12 15
l-23 -28 -17 26 c-27 40 -42 31 -17 -10z"/>
<path d="M8100 6000 c-28 -28 -27 -84 2 -104 31 -22 64 -20 88 4 41 41 12 120
-45 120 -14 0 -34 -9 -45 -20z m78 -12 c7 -7 12 -24 12 -38 0 -31 -17 -50 -45
-50 -28 0 -45 19 -45 50 0 31 17 50 45 50 12 0 26 -5 33 -12z"/>
<path d="M8240 5962 c0 -32 5 -63 12 -70 16 -16 53 -15 66 1 8 9 3 12 -21 12
-32 0 -32 0 -35 58 -4 75 -22 74 -22 -1z"/>
<path d="M8338 5973 c-4 -60 1 -93 13 -93 5 0 9 32 9 70 0 79 -16 96 -22 23z"/>
<path d="M8450 5925 c0 -57 4 -95 10 -95 6 0 11 19 11 43 1 23 3 56 4 72 3 38
-5 75 -16 75 -5 0 -9 -43 -9 -95z"/>
<path d="M8491 6006 c-9 -11 -6 -12 14 -8 33 6 55 -13 55 -48 0 -35 -22 -54
-55 -48 -20 4 -23 3 -14 -8 30 -36 89 1 89 56 0 55 -59 92 -89 56z"/>
<path d="M8627 6002 c-23 -25 -22 -85 1 -105 23 -21 56 -22 73 -1 12 14 14 14
20 -3 4 -10 8 13 8 55 1 42 -3 72 -9 72 -5 0 -10 -5 -10 -12 0 -9 -3 -9 -12 0
-18 18 -53 15 -71 -6z m78 -52 c0 -39 -3 -45 -23 -48 -30 -4 -52 14 -52 43 0
44 11 56 44 53 30 -3 31 -5 31 -48z"/>
<path d="M8781 6002 c-13 -24 2 -47 39 -62 17 -7 29 -18 27 -24 -5 -16 -48
-20 -58 -5 -4 8 -11 10 -15 6 -13 -12 18 -37 47 -37 18 0 32 7 39 19 14 28 14
28 -30 56 -23 14 -38 30 -35 35 9 14 43 12 48 -2 2 -7 8 -10 12 -6 13 12 -15
38 -41 38 -13 0 -28 -8 -33 -18z"/>
<path d="M8912 6008 c-23 -23 -13 -48 23 -64 40 -16 47 -44 12 -44 -13 0 -28
5 -35 12 -6 6 -14 9 -17 6 -10 -10 26 -38 49 -38 54 0 63 54 11 76 -19 8 -35
21 -35 29 0 17 35 21 45 5 12 -20 26 -10 15 10 -12 22 -49 27 -68 8z"/>
<path d="M9036 6004 c-57 -56 6 -162 64 -109 18 16 20 17 20 2 0 -10 5 -17 10
-17 6 0 10 30 10 70 0 40 -4 70 -10 70 -5 0 -10 -5 -10 -12 0 -9 -3 -9 -12 0
-17 17 -54 15 -72 -4z m72 -16 c7 -7 12 -24 12 -38 0 -52 -61 -71 -82 -25 -23
51 32 101 70 63z"/>
<path d="M9180 5950 c0 -82 17 -95 22 -16 4 62 0 86 -13 86 -5 0 -9 -31 -9
-70z"/>
<path d="M9217 6013 c-12 -12 -7 -22 8 -17 8 4 15 10 15 15 0 11 -14 12 -23 2z"/>
<path d="M3844 5913 c-12 -16 -26 -39 -33 -53 l-12 -25 19 24 c23 28 55 81 49
81 -2 0 -12 -12 -23 -27z"/>
<path d="M9260 5896 c0 -9 7 -16 16 -16 9 0 14 5 12 12 -6 18 -28 21 -28 4z"/>
<path d="M3777 5801 c-9 -16 -17 -33 -17 -38 0 -4 9 7 21 26 11 18 18 35 17
37 -2 2 -12 -10 -21 -25z"/>
<path d="M3726 5695 c-9 -26 -7 -32 5 -12 6 10 9 21 6 23 -2 3 -7 -2 -11 -11z"/>
<path d="M7560 5452 c0 -81 8 -132 22 -132 5 0 7 4 4 9 -4 5 -1 11 5 13 9 3
35 156 27 163 -2 2 -15 6 -31 10 l-27 7 0 -70z"/>
<path d="M7760 5471 c13 -19 33 -33 54 -37 54 -10 96 -41 116 -87 11 -23 20
-36 20 -29 0 7 5 10 10 7 14 -9 13 8 -2 23 -9 9 -9 12 1 12 9 0 11 8 6 28 -4
15 -7 34 -7 42 0 8 -2 26 -4 40 -4 25 -6 25 -110 28 l-106 3 22 -30z"/>
<path d="M3851 5424 c0 -11 3 -14 6 -6 3 7 2 16 -1 19 -3 4 -6 -2 -5 -13z"/>
<path d="M491 4844 c0 -11 3 -14 6 -6 3 7 2 16 -1 19 -3 4 -6 -2 -5 -13z"/>
<path d="M8191 4727 c0 -21 -8 -54 -16 -74 -19 -44 -4 -71 21 -39 15 21 17 71
4 121 -8 30 -8 30 -9 -8z"/>
<path d="M511 4694 c0 -11 3 -14 6 -6 3 7 2 16 -1 19 -3 4 -6 -2 -5 -13z"/>
<path d="M551 4434 c0 -11 3 -14 6 -6 3 7 2 16 -1 19 -3 4 -6 -2 -5 -13z"/>
<path d="M8265 4371 c-28 -58 -36 -84 -28 -92 26 -26 79 82 71 146 -3 24 -8
17 -43 -54z"/>
<path d="M561 4385 c1 -38 57 -370 59 -350 1 11 1 25 0 30 -1 6 -3 28 -5 50
-5 83 -18 166 -26 171 -5 3 -9 24 -9 47 0 23 -5 49 -10 57 -8 12 -10 12 -9 -5z"/>
<path d="M6500 4270 c0 -5 5 -10 10 -10 6 0 10 5 10 10 0 6 -4 10 -10 10 -5 0
-10 -4 -10 -10z"/>
<path d="M4107 4245 c-4 -8 -2 -17 3 -20 6 -4 10 3 10 14 0 25 -6 27 -13 6z"/>
<path d="M4110 4172 c0 -12 19 -26 26 -19 2 2 -2 10 -11 17 -9 8 -15 8 -15 2z"/>
<path d="M7874 4030 c-6 -6 -21 -12 -33 -13 -11 -1 -21 -5 -21 -10 0 -5 -9 -6
-20 -2 -16 5 -19 3 -14 -12 5 -16 4 -16 -10 1 -14 17 -16 18 -16 3 0 -9 -7
-17 -16 -17 -12 0 -15 -7 -12 -24 4 -18 1 -23 -9 -19 -9 4 -16 -3 -20 -16 -3
-12 -11 -20 -17 -18 -7 3 -20 -1 -31 -9 -10 -8 -16 -14 -11 -14 23 0 242 43
246 48 3 4 14 7 25 7 11 0 19 6 18 13 -2 7 8 12 26 12 31 0 44 12 46 44 2 16
0 17 -9 4 -6 -8 -17 -13 -23 -11 -7 3 -13 -3 -13 -12 0 -13 -2 -13 -14 -3 -11
11 -9 15 15 25 16 7 29 17 29 22 0 7 -9 6 -26 -1 -20 -10 -27 -9 -34 2 -7 11
-11 11 -23 1 -10 -8 -16 -8 -19 -1 -2 8 -6 8 -14 0z"/>
<path d="M6620 4016 c0 -2 7 -7 16 -10 8 -3 12 -2 9 4 -6 10 -25 14 -25 6z"/>
<path d="M625 3970 c2 -14 5 -37 5 -51 0 -16 6 -26 14 -26 11 0 13 5 5 19 -6
12 -6 18 1 18 5 0 10 5 10 12 0 6 -3 8 -7 4 -4 -3 -13 6 -20 21 -13 27 -13 27
-8 3z"/>
<path d="M7700 3970 c-13 -8 -12 -10 3 -10 9 0 17 5 17 10 0 12 -1 12 -20 0z"/>
<path d="M645 3852 c5 -69 5 -69 16 -50 10 17 3 64 -11 73 -4 2 -6 -8 -5 -23z"/>
<path d="M655 3770 c3 -5 10 -10 16 -10 5 0 9 5 9 10 0 6 -7 10 -16 10 -8 0
-12 -4 -9 -10z"/>
<path d="M665 3709 c12 -73 24 -91 22 -33 -1 28 -8 57 -16 64 -11 11 -12 6 -6
-31z"/>
<path d="M3779 3624 c-9 -8 -25 -17 -35 -18 -10 -2 -19 -8 -19 -14 0 -6 -4
-14 -9 -19 -5 -5 -6 -3 -2 5 9 15 4 15 -29 0 -14 -6 -25 -15 -25 -19 0 -5 -13
-6 -30 -2 -23 4 -30 2 -30 -10 0 -16 -73 -50 -78 -37 -5 13 -52 -11 -52 -26 0
-23 14 -22 115 6 55 16 124 31 153 35 87 10 90 13 76 84 -7 35 -13 38 -35 15z"/>
<path d="M705 3570 c-3 -5 3 -27 15 -49 23 -47 25 -55 8 -45 -7 4 1 -8 19 -26
27 -29 40 -34 90 -37 66 -4 174 -35 248 -69 36 -17 68 -24 110 -24 45 0 56 3
45 11 -11 8 -6 9 20 5 19 -3 74 -10 122 -15 99 -11 142 -27 115 -43 -21 -11
-47 -60 -47 -86 0 -30 30 -50 151 -97 253 -98 346 -139 381 -166 24 -20 67
-37 131 -53 114 -29 176 -55 234 -99 51 -38 55 -65 21 -160 -25 -70 -30 -221
-9 -267 l11 -25 -4 25 c-14 76 -18 130 -8 130 15 0 25 -28 31 -90 6 -52 7 -55
32 -52 23 2 29 -4 48 -47 11 -27 21 -54 21 -59 0 -18 69 -99 88 -104 24 -7 49
6 33 16 -11 7 -61 102 -61 117 0 5 5 9 11 9 6 0 8 -7 4 -17 -5 -14 -3 -15 6
-6 8 8 19 8 40 1 28 -9 40 -28 19 -28 -10 0 -2 -59 10 -73 4 -5 38 7 76 25 89
43 230 181 298 291 46 73 66 97 51 60 -4 -10 -8 -26 -10 -37 -3 -10 -9 -24
-15 -31 -6 -8 -10 -19 -9 -27 1 -7 1 -22 0 -33 -1 -16 -3 -17 -11 -5 -6 9 -5
17 3 22 9 6 9 8 0 8 -29 0 -25 -45 5 -53 12 -3 10 -5 -5 -6 -13 0 -23 -6 -23
-12 0 -5 5 -7 10 -4 22 14 8 -10 -25 -42 -20 -19 -32 -39 -29 -45 4 -6 3 -8
-3 -5 -5 3 -24 -10 -42 -29 -18 -19 -36 -32 -39 -30 -4 2 -23 -5 -42 -16 -19
-10 -27 -17 -18 -14 10 3 20 1 23 -5 4 -5 11 -6 17 -3 7 5 8 2 4 -5 -5 -7 -14
-10 -21 -7 -7 2 -23 -3 -36 -11 -17 -13 -21 -13 -15 -2 4 8 1 6 -8 -5 -8 -10
-19 -15 -24 -12 -6 3 -12 1 -14 -6 -3 -8 -30 -11 -88 -10 -103 2 -111 7 -201
126 -79 103 -84 108 -74 76 4 -14 11 -27 15 -30 7 -5 19 -49 22 -77 1 -7 5
-13 10 -13 5 0 6 -12 2 -27 -4 -21 -3 -24 5 -13 5 8 12 12 15 9 8 -8 -17 -69
-29 -70 -5 -1 8 -5 30 -9 22 -4 81 -17 130 -29 59 -15 148 -25 260 -31 94 -5
197 -14 230 -20 33 -6 96 -13 140 -16 69 -5 91 -2 160 21 44 14 113 30 153 34
65 8 78 13 110 43 20 20 65 50 100 68 69 36 116 84 161 166 29 49 29 55 25
155 -3 57 -11 142 -19 189 -25 153 -46 264 -52 273 -6 10 183 2 307 -13 93
-11 232 -21 205 -14 -48 12 -51 14 -35 24 8 6 26 10 40 11 21 1 22 2 5 6 -11
3 -26 10 -32 15 -9 7 -13 7 -13 -2 0 -9 -6 -9 -22 2 -13 8 -30 14 -38 13 -8 0
-17 2 -20 5 -3 3 -49 14 -102 24 -53 10 -99 21 -103 24 -3 3 -18 8 -33 10 -15
2 -29 6 -32 10 -3 4 -16 8 -30 9 -24 2 -23 2 5 -12 17 -8 35 -14 41 -15 7 0
15 -7 18 -16 5 -13 3 -14 -6 -7 -7 6 -20 10 -28 10 -27 1 -164 41 -210 62 -37
17 -41 21 -20 21 20 0 22 2 10 10 -8 5 -25 10 -37 10 -13 0 -23 5 -23 11 0 6
9 8 20 4 11 -3 20 -2 20 4 0 5 -21 13 -47 17 -27 3 -63 13 -82 20 -18 8 -44
14 -56 14 -46 0 -56 10 -49 46 8 44 -2 44 -20 0 -25 -60 -65 -67 -166 -32 -25
9 -79 20 -120 26 -41 5 -86 12 -100 14 -14 3 -50 8 -80 11 -30 3 -66 10 -80
15 -22 7 -62 16 -120 25 -8 2 -42 6 -75 9 -33 3 -76 9 -95 12 -19 3 -62 7 -96
9 -33 2 -73 9 -88 15 -15 5 -42 10 -60 10 -18 0 -36 3 -39 6 -7 8 -56 13 -177
19 -47 2 -123 11 -170 20 -47 8 -99 17 -116 19 -17 1 -36 6 -42 10 -8 4 -12 0
-12 -11 -1 -17 -1 -17 -14 0 -10 12 -16 15 -21 7 -5 -8 -11 -7 -22 2 -8 7 -25
13 -37 13 -11 0 -32 7 -46 14 -23 13 -24 13 -11 -2 12 -15 11 -17 -3 -17 -9 0
-19 6 -22 14 -3 9 -12 12 -21 9 -9 -4 -21 1 -28 10 -11 15 -14 15 -30 -3 -21
-23 -35 -26 -35 -6 0 34 -39 43 -197 49 -24 1 -43 5 -43 9 0 4 -11 7 -25 6
-14 -1 -25 -6 -25 -11 0 -11 -36 25 -43 43 -4 12 -6 11 -6 -2 -1 -12 -9 -18
-27 -18 -14 0 -22 4 -19 10 3 6 -1 7 -9 4 -9 -3 -14 -10 -11 -14 9 -15 -7 -40
-26 -40 -12 0 -21 9 -25 25 -3 14 -9 25 -13 25 -14 0 -61 -25 -61 -32 0 -5 -5
-8 -12 -8 -6 0 -4 8 6 19 23 25 7 34 -28 16 -14 -8 -24 -10 -21 -5 4 6 -3 6
-19 0 -19 -7 -29 -5 -41 6 -8 9 -15 12 -15 8 0 -4 -9 1 -20 11 -16 15 -23 16
-33 6 -9 -10 -9 -12 2 -9 7 2 16 -3 19 -11 3 -11 -2 -12 -24 -7 -23 6 -27 5
-16 -5 20 -21 14 -34 -8 -14 -10 9 -19 20 -18 24 1 3 -2 14 -6 24 -10 21 -32
22 -40 2 -3 -8 -11 -15 -18 -15 -9 0 -8 3 2 10 13 8 12 10 -3 10 -10 0 -15 5
-12 10 3 6 4 10 1 10 -3 0 -8 -4 -11 -10z m452 -102 c-3 -7 -5 -2 -5 12 0 14
2 19 5 13 2 -7 2 -19 0 -25z m103 -88 c13 -8 13 -10 -2 -10 -9 0 -20 5 -23 10
-8 13 5 13 25 0z m785 -180 l70 -18 -51 -1 c-47 -1 -184 33 -184 45 0 7 82 -6
165 -26z m319 14 c20 -8 21 -43 1 -50 -23 -9 -85 5 -85 19 0 31 44 46 84 31z
m-826 -40 c4 -29 -31 -38 -53 -14 -22 24 -10 42 23 38 19 -2 28 -10 30 -24z
m1147 -49 c0 -24 -34 -28 -52 -5 -16 21 -6 32 25 28 19 -2 27 -9 27 -23z m180
-40 c6 -2 -11 -4 -37 -4 -27 -1 -48 3 -48 7 0 7 62 5 85 -3z m700 -115 c19 -1
19 -2 1 -9 -16 -6 -10 -13 39 -41 32 -18 78 -52 101 -75 24 -23 46 -40 48 -38
14 14 -3 -60 -18 -76 -17 -18 -17 -19 3 -26 19 -6 50 -45 36 -45 -4 0 -22 12
-40 26 -19 14 -39 23 -45 19 -6 -4 -20 1 -30 10 -17 15 -19 15 -25 -3 -3 -11
-1 -50 6 -86 14 -86 6 -106 -15 -35 -19 64 -74 160 -117 204 -16 17 -29 37
-29 45 0 13 -87 60 -111 60 -27 0 15 39 42 40 9 0 27 9 40 20 17 13 34 18 59
15 19 -2 44 -4 55 -5z m-212 -86 c109 -56 243 -192 217 -218 -8 -8 -19 -1 -39
21 -16 18 -31 30 -35 26 -3 -3 -6 -1 -6 5 0 7 -7 12 -15 12 -8 0 -15 4 -15 9
0 5 -28 36 -61 69 -43 42 -72 62 -97 67 -26 5 -32 9 -21 16 20 13 36 11 72 -7z
m-844 -401 c12 -14 24 -38 28 -52 3 -14 17 -45 30 -68 26 -44 24 -56 -7 -73
-16 -9 -22 -6 -34 18 -8 15 -17 44 -21 65 -4 20 -16 54 -26 74 -11 21 -19 43
-19 50 0 22 27 14 49 -14z m576 -243 c-3 -5 -11 -10 -16 -10 -6 0 -7 5 -4 10
3 6 11 10 16 10 6 0 7 -4 4 -10z m-322 -157 c-7 -2 -21 -2 -30 0 -10 3 -4 5
12 5 17 0 24 -2 18 -5z"/>
<path d="M6960 3536 c0 -8 -6 -16 -12 -19 -7 -3 -4 -5 8 -4 15 1 20 6 16 19
-5 22 -12 24 -12 4z"/>
<path d="M6886 3494 c-8 -22 -4 -25 11 -9 7 8 9 16 4 19 -5 3 -12 -1 -15 -10z"/>
<path d="M3830 3461 c0 -5 -9 -13 -21 -16 -23 -8 -38 -41 -45 -100 -3 -22 -7
-54 -9 -71 -4 -29 -2 -32 26 -38 18 -3 35 -6 39 -6 4 0 11 30 14 68 4 37 9 91
12 120 4 35 3 52 -5 52 -6 0 -11 -4 -11 -9z"/>
<path d="M3747 3401 c-4 -17 -3 -21 5 -13 5 5 8 16 6 23 -3 8 -7 3 -11 -10z"/>
<path d="M3736 3339 c-8 -42 0 -50 9 -9 4 17 5 34 2 36 -2 3 -7 -10 -11 -27z"/>
<path d="M5943 3156 c-152 -49 -255 -204 -239 -360 29 -282 363 -414 570 -225
33 30 66 73 83 107 24 50 28 69 28 147 0 76 -4 99 -26 146 -56 120 -166 191
-299 196 -43 2 -93 -3 -117 -11z m31 -186 c31 -38 60 -70 64 -70 5 0 36 32 71
70 65 73 94 86 125 54 23 -23 20 -48 -11 -86 -60 -73 -288 -333 -298 -340 -29
-21 -85 7 -85 43 0 10 31 55 70 100 l69 82 -44 50 c-43 46 -45 52 -45 108 0
44 4 59 14 59 8 0 39 -31 70 -70z m270 -322 c16 -26 -4 -53 -40 -53 -23 0 -30
5 -32 23 -7 47 47 69 72 30z"/>
<path d="M4353 2963 c9 -2 23 -2 30 0 6 3 -1 5 -18 5 -16 0 -22 -2 -12 -5z"/>
<path d="M4390 2930 c0 -5 3 -9 8 -8 4 0 14 -2 22 -5 8 -3 42 -11 75 -17 80
-14 88 -26 81 -120 -4 -41 -7 -116 -7 -165 -1 -83 -2 -92 -22 -100 -14 -7 -22
-19 -22 -35 0 -14 -3 -26 -7 -27 -15 -5 -28 -3 -26 5 2 8 -30 72 -37 72 -5 0
9 -47 29 -92 9 -21 16 -47 16 -58 0 -12 5 -18 10 -15 6 3 11 3 11 -2 1 -4 4
-19 7 -33 2 -14 4 -56 3 -93 0 -38 3 -66 8 -63 4 3 6 -7 3 -22 -4 -23 -6 -24
-12 -7 -6 18 -7 18 -12 -3 -4 -12 -2 -22 4 -22 6 0 7 -13 3 -32 -24 -119 -115
-491 -156 -636 -125 -446 -130 -470 -84 -460 12 2 30 45 65 158 48 154 102
310 116 332 4 6 8 21 10 32 9 57 27 112 58 174 19 37 42 94 51 127 29 107 58
175 76 175 10 0 19 11 22 29 3 16 12 31 19 33 24 9 153 -12 226 -37 72 -25 74
-25 140 -9 67 16 88 16 452 11 85 -1 208 4 273 12 l117 13 0 65 c0 59 -2 64
-17 57 -10 -5 -196 -9 -413 -9 -303 -1 -404 -4 -434 -14 -75 -26 -365 5 -387
40 -33 52 5 61 242 58 117 -1 195 4 273 16 94 16 124 17 220 7 112 -11 186 -9
396 12 l115 11 3 66 3 65 -71 -7 c-79 -9 -390 -14 -520 -10 -47 2 -103 -1
-125 -7 -22 -6 -105 -14 -185 -17 -80 -3 -187 -10 -239 -16 -98 -10 -120 -5
-99 23 9 12 54 23 143 38 72 11 157 30 190 41 87 30 374 50 585 40 76 -4 182
3 218 15 9 3 -3 23 -37 60 l-50 55 -128 5 c-71 2 -187 1 -259 -4 -113 -8 -136
-13 -175 -35 -60 -35 -140 -54 -286 -66 -183 -16 -171 -19 -171 34 0 25 4 47
9 50 17 11 125 25 303 40 168 13 181 16 225 44 67 43 109 50 280 50 85 1 155
2 155 3 1 2 0 34 -2 71 l-4 68 -96 -7 c-78 -5 -114 -14 -182 -41 -91 -38 -85
-37 -395 -53 -110 -6 -224 -13 -252 -16 l-53 -6 0 36 0 36 49 0 c27 0 65 -7
84 -15 41 -17 162 -20 172 -5 3 6 4 10 1 10 -41 0 -188 28 -286 54 -69 19
-156 37 -195 40 -38 3 -82 8 -97 11 -16 3 -28 1 -28 -5z m171 -437 c12 -16 12
-17 -2 -6 -9 7 -20 9 -24 5 -5 -4 -5 -1 -1 6 9 16 11 15 27 -5z m-27 -69 c8
-3 12 -12 9 -20 -7 -20 -20 -17 -26 6 -6 22 -5 23 17 14z m16 -54 c0 -5 -2
-10 -4 -10 -3 0 -8 5 -11 10 -3 6 -1 10 4 10 6 0 11 -4 11 -10z m8 -86 l-3
-49 -5 57 c-3 31 -1 53 3 49 5 -5 7 -30 5 -57z"/>
<path d="M5133 2823 c15 -2 37 -2 50 0 12 2 0 4 -28 4 -27 0 -38 -2 -22 -4z"/>
<path d="M7500 2630 c0 -5 5 -10 10 -10 6 0 10 5 10 10 0 6 -4 10 -10 10 -5 0
-10 -4 -10 -10z"/>
<path d="M6490 2540 l0 -90 46 0 c25 0 54 5 65 10 24 13 26 65 3 74 -14 5 -14
7 0 22 37 36 2 74 -67 74 l-47 0 0 -90z m106 55 c10 -24 -15 -45 -52 -45 -31
0 -34 3 -34 30 0 28 2 30 40 30 27 0 43 -5 46 -15z m-1 -95 c0 -22 -5 -25 -42
-28 -42 -3 -43 -2 -43 28 0 30 1 31 43 28 37 -3 42 -6 42 -28z"/>
<path d="M6671 2564 c-12 -15 -21 -34 -21 -44 0 -10 9 -29 21 -44 39 -50 112
-22 112 44 0 66 -73 94 -112 44z m90 -21 c15 -41 -3 -73 -41 -73 -39 0 -59 36
-42 75 17 37 69 35 83 -2z"/>
<path d="M6810 2520 c0 -40 4 -70 10 -70 6 0 10 20 10 44 0 36 5 48 27 65 14
12 23 24 20 28 -4 3 -16 -2 -27 -12 -18 -16 -20 -16 -20 -2 0 10 -4 17 -10 17
-6 0 -10 -30 -10 -70z"/>
<path d="M6917 2572 c-23 -25 -22 -85 1 -105 23 -21 56 -22 73 -1 12 14 14 14
20 -3 4 -10 8 13 8 55 1 42 -3 72 -9 72 -5 0 -10 -5 -10 -12 0 -9 -3 -9 -12 0
-18 18 -53 15 -71 -6z m78 -52 c0 -39 -3 -45 -23 -48 -30 -4 -52 14 -52 43 0
44 11 56 44 53 30 -3 31 -5 31 -48z"/>
<path d="M7120 2520 c0 -40 4 -70 10 -70 6 0 10 20 10 44 0 36 5 48 27 65 14
12 23 24 20 28 -4 3 -16 -2 -27 -12 -18 -16 -20 -16 -20 -2 0 10 -4 17 -10 17
-6 0 -10 -30 -10 -70z"/>
<path d="M7231 2564 c-12 -15 -21 -34 -21 -44 0 -31 39 -70 70 -70 29 0 59 25
45 38 -4 4 -10 1 -12 -5 -7 -21 -61 -16 -73 6 -15 30 -14 31 45 31 60 0 67 9
39 48 -22 31 -67 29 -93 -4z m78 -7 c15 -19 4 -27 -36 -27 -31 0 -44 16 -26
33 11 12 50 8 62 -6z"/>
<path d="M7379 2520 c14 -38 30 -68 36 -67 9 3 55 111 55 129 0 4 -4 8 -8 8
-5 0 -17 -26 -27 -57 l-18 -58 -15 35 c-8 19 -18 45 -23 58 -5 12 -13 22 -18
22 -5 0 3 -31 18 -70z"/>
<path d="M7500 2520 c0 -40 4 -70 10 -70 6 0 10 30 10 70 0 40 -4 70 -10 70
-6 0 -10 -30 -10 -70z"/>
<path d="M7571 2572 c-13 -24 2 -47 39 -62 17 -7 29 -18 27 -24 -5 -16 -48
-20 -58 -5 -4 8 -11 10 -15 6 -13 -12 18 -37 47 -37 18 0 32 7 39 19 14 28 14
28 -30 56 -23 14 -38 30 -35 35 9 14 43 12 48 -2 2 -7 8 -10 12 -6 13 12 -15
38 -41 38 -13 0 -28 -8 -33 -18z"/>
<path d="M7706 2574 c-57 -56 6 -162 64 -109 18 16 20 17 20 2 0 -10 5 -17 10
-17 6 0 10 30 10 70 0 40 -4 70 -10 70 -5 0 -10 -5 -10 -12 0 -9 -3 -9 -12 0
-17 17 -54 15 -72 -4z m72 -16 c7 -7 12 -24 12 -38 0 -52 -61 -71 -82 -25 -23
51 32 101 70 63z"/>
<path d="M7840 2520 c0 -40 4 -70 10 -70 6 0 10 20 10 44 0 36 5 48 27 65 14
12 23 24 20 28 -4 3 -16 -2 -27 -12 -18 -16 -20 -16 -20 -2 0 10 -4 17 -10 17
-6 0 -10 -30 -10 -70z"/>
<path d="M8011 2564 c-12 -15 -21 -34 -21 -44 0 -31 39 -70 70 -70 29 0 59 25
45 38 -4 4 -10 1 -12 -5 -7 -21 -61 -16 -73 6 -15 30 -14 31 45 31 60 0 67 9
39 48 -22 31 -67 29 -93 -4z m78 -7 c15 -19 4 -27 -36 -27 -31 0 -44 16 -26
33 11 12 50 8 62 -6z"/>
<path d="M8162 2578 c-23 -23 -13 -48 23 -64 40 -16 47 -44 12 -44 -13 0 -28
5 -35 12 -6 6 -14 9 -17 6 -10 -10 26 -38 49 -38 54 0 63 54 11 76 -19 8 -35
21 -35 29 0 17 35 21 45 5 12 -20 26 -10 15 10 -12 22 -49 27 -68 8z"/>
<path d="M8282 2578 c-23 -23 -13 -48 23 -64 40 -16 47 -44 12 -44 -13 0 -28
5 -35 12 -6 6 -14 9 -17 6 -10 -10 26 -38 49 -38 54 0 63 54 11 76 -19 8 -35
21 -35 29 0 17 35 21 45 5 12 -20 26 -10 15 10 -12 22 -49 27 -68 8z"/>
<path d="M8410 2570 c-41 -41 -12 -120 44 -120 25 0 62 28 51 38 -3 3 -11 0
-17 -6 -25 -25 -78 -8 -78 25 0 9 16 13 50 13 43 0 50 3 50 19 0 48 -64 67
-100 31z m78 -22 c3 -15 -4 -18 -37 -18 -43 0 -50 7 -29 28 18 18 62 11 66
-10z"/>
<path d="M4430 2571 c0 -6 4 -12 8 -15 5 -3 9 1 9 9 0 8 -4 15 -9 15 -4 0 -8
-4 -8 -9z"/>
<path d="M4515 2530 c3 -5 8 -10 11 -10 2 0 4 5 4 10 0 6 -5 10 -11 10 -5 0
-7 -4 -4 -10z"/>
<path d="M4365 2380 c-3 -5 1 -11 9 -11 33 -3 86 -28 86 -41 0 -5 5 -6 10 -3
17 10 11 35 -7 35 -10 0 -27 7 -37 15 -23 17 -52 20 -61 5z"/>
<path d="M3920 2340 c0 -5 7 -10 15 -10 8 0 15 5 15 10 0 6 -7 10 -15 10 -8 0
-15 -4 -15 -10z"/>
<path d="M8200 2305 c-20 -24 -6 -28 15 -5 10 11 13 20 8 20 -6 0 -16 -7 -23
-15z"/>
<path d="M8846 2312 c-5 -8 -19 -10 -40 -6 -25 4 -35 2 -39 -10 -4 -9 -2 -16
2 -16 5 0 11 5 13 11 2 7 12 7 31 -2 30 -13 53 -2 45 22 -3 10 -6 10 -12 1z"/>
<path d="M3954 2302 c-8 -5 -6 -13 6 -25 17 -17 17 -17 13 8 -3 14 -6 25 -7
25 0 0 -6 -4 -12 -8z"/>
<path d="M9089 2291 c-13 -11 -20 -23 -16 -28 5 -4 13 0 18 10 19 32 69 14 69
-25 0 -10 -11 -24 -25 -30 -24 -11 -36 -48 -15 -48 6 0 10 5 10 11 0 6 11 20
25 31 30 24 32 51 5 78 -25 25 -41 25 -71 1z"/>
<path d="M4014 2279 c0 -10 4 -19 8 -19 4 0 8 6 8 14 0 8 -4 17 -8 20 -4 2 -8
-4 -8 -15z"/>
<path d="M6410 2205 c0 -57 4 -95 10 -95 6 0 10 38 10 95 0 57 -4 95 -10 95
-6 0 -10 -38 -10 -95z"/>
<path d="M6940 2290 c0 -5 5 -10 10 -10 6 0 10 5 10 10 0 6 -4 10 -10 10 -5 0
-10 -4 -10 -10z"/>
<path d="M3920 2276 c0 -9 5 -16 10 -16 6 0 10 4 10 9 0 6 -4 13 -10 16 -5 3
-10 -1 -10 -9z"/>
<path d="M7735 2273 c-4 -13 -14 -23 -21 -23 -8 0 -14 -4 -14 -10 0 -5 7 -10
15 -10 12 0 15 -13 15 -60 0 -33 4 -60 10 -60 6 0 10 27 10 60 0 47 3 60 15
60 8 0 15 5 15 10 0 6 -6 10 -14 10 -8 0 -17 10 -19 23 l-4 22 -8 -22z"/>
<path d="M8680 2270 c0 -11 -7 -20 -15 -20 -8 0 -15 -4 -15 -10 0 -5 7 -10 15
-10 12 0 15 -13 15 -60 0 -33 4 -60 10 -60 6 0 10 27 10 60 0 47 3 60 15 60 8
0 15 5 15 10 0 6 -7 10 -15 10 -8 0 -15 9 -15 20 0 11 -4 20 -10 20 -5 0 -10
-9 -10 -20z"/>
<path d="M3969 2220 c-12 -32 -30 -42 -22 -11 3 11 -2 21 -12 25 -13 4 -16 1
-14 -17 1 -12 -1 -29 -4 -37 -10 -25 -13 -90 -5 -90 16 0 28 39 19 62 -7 20
-5 23 14 23 14 0 21 -5 18 -12 -8 -21 15 -15 27 7 8 14 8 20 0 20 -8 0 -9 11
-5 30 4 17 4 30 0 30 -3 0 -11 -13 -16 -30z"/>
<path d="M6250 2155 c0 -115 17 -127 22 -16 3 88 1 111 -13 111 -5 0 -9 -43
-9 -95z"/>
<path d="M6287 2243 c-14 -14 -6 -19 23 -15 39 6 60 -33 41 -74 -9 -22 -17
-25 -41 -22 -34 5 -41 -7 -10 -17 65 -20 105 69 54 120 -16 15 -55 20 -67 8z"/>
<path d="M6487 2232 c-23 -25 -22 -85 1 -105 23 -21 56 -22 73 -1 12 14 14 14
20 -3 4 -10 8 13 8 55 1 42 -3 72 -9 72 -5 0 -10 -5 -10 -12 0 -9 -3 -9 -12 0
-18 18 -53 15 -71 -6z m78 -52 c0 -39 -3 -45 -23 -48 -30 -4 -52 14 -52 43 0
44 11 56 44 53 30 -3 31 -5 31 -48z"/>
<path d="M6630 2180 c0 -82 16 -94 22 -17 4 58 0 87 -13 87 -5 0 -9 -31 -9
-70z"/>
<path d="M6671 2236 c-10 -12 -6 -14 21 -13 l33 2 3 -57 c2 -32 7 -58 12 -58
14 0 12 114 -2 128 -16 16 -53 15 -67 -2z"/>
<path d="M6801 2224 c-12 -15 -21 -34 -21 -44 0 -31 39 -70 70 -70 29 0 59 25
45 38 -4 4 -10 1 -12 -5 -7 -21 -61 -16 -73 6 -15 30 -14 31 45 31 60 0 67 9
39 48 -22 31 -67 29 -93 -4z m78 -7 c15 -19 4 -27 -36 -27 -31 0 -44 16 -26
33 11 12 50 8 62 -6z"/>
<path d="M6940 2155 c0 -57 4 -95 10 -95 6 0 10 38 10 95 0 57 -4 95 -10 95
-6 0 -10 -38 -10 -95z"/>
<path d="M7016 2234 c-57 -56 6 -162 64 -109 18 16 20 17 20 2 0 -10 5 -17 10
-17 6 0 10 30 10 70 0 40 -4 70 -10 70 -5 0 -10 -5 -10 -12 0 -9 -3 -9 -12 0
-17 17 -54 15 -72 -4z m72 -16 c7 -7 12 -24 12 -38 0 -52 -61 -71 -82 -25 -23
51 32 101 70 63z"/>
<path d="M7160 2180 c0 -40 4 -70 10 -70 6 0 10 22 10 48 0 53 12 72 46 72 26
0 34 -17 34 -76 0 -65 18 -54 22 14 3 56 3 57 33 57 30 0 30 -1 33 -57 2 -32
7 -58 12 -58 13 0 13 96 0 121 -13 23 -52 25 -70 4 -11 -13 -14 -13 -27 0 -19
19 -48 19 -67 -1 -15 -14 -16 -14 -16 0 0 9 -4 16 -10 16 -6 0 -10 -30 -10
-70z"/>
<path d="M7421 2224 c-12 -15 -21 -34 -21 -44 0 -31 39 -70 70 -70 29 0 59 25
45 38 -4 4 -10 1 -12 -5 -7 -21 -61 -16 -73 6 -15 30 -14 31 45 31 60 0 67 9
39 48 -22 31 -67 29 -93 -4z m78 -7 c15 -19 4 -27 -36 -27 -31 0 -44 16 -26
33 11 12 50 8 62 -6z"/>
<path d="M7560 2180 c0 -40 4 -70 10 -70 6 0 10 22 10 48 0 53 12 72 46 72 26
0 34 -17 34 -76 0 -26 5 -44 11 -44 17 0 6 119 -12 131 -21 13 -46 11 -63 -7
-15 -14 -16 -14 -16 0 0 9 -4 16 -10 16 -6 0 -10 -30 -10 -70z"/>
<path d="M7821 2224 c-12 -15 -21 -34 -21 -44 0 -10 9 -29 21 -44 39 -50 112
-22 112 44 0 66 -73 94 -112 44z m90 -21 c15 -41 -3 -73 -41 -73 -39 0 -59 36
-42 75 17 37 69 35 83 -2z"/>
<path d="M8037 2232 c-23 -25 -22 -85 1 -105 23 -21 56 -22 73 -1 12 14 14 14
20 -3 4 -10 8 13 8 55 1 42 -3 72 -9 72 -5 0 -10 -5 -10 -12 0 -9 -3 -9 -12 0
-18 18 -53 15 -71 -6z m78 -52 c0 -39 -3 -45 -23 -48 -30 -4 -52 14 -52 43 0
44 11 56 44 53 30 -3 31 -5 31 -48z"/>
<path d="M8180 2180 c0 -40 4 -70 10 -70 6 0 10 30 10 70 0 40 -4 70 -10 70
-6 0 -10 -30 -10 -70z"/>
<path d="M8370 2230 c-41 -41 -12 -120 44 -120 25 0 62 28 51 38 -3 3 -11 0
-17 -6 -25 -25 -78 -8 -78 25 0 9 16 13 50 13 43 0 50 3 50 19 0 48 -64 67
-100 31z m78 -22 c3 -15 -4 -18 -37 -18 -43 0 -50 7 -29 28 18 18 62 11 66
-10z"/>
<path d="M8500 2180 c0 -82 16 -94 22 -17 4 58 0 87 -13 87 -5 0 -9 -31 -9
-70z"/>
<path d="M8541 2236 c-10 -12 -6 -14 21 -13 l33 2 3 -57 c2 -32 7 -58 12 -58
14 0 12 114 -2 128 -16 16 -53 15 -67 -2z"/>
<path d="M8767 2232 c-23 -25 -22 -85 1 -105 23 -21 56 -22 73 -1 12 14 14 14
20 -3 4 -10 8 13 8 55 1 42 -3 72 -9 72 -5 0 -10 -5 -10 -12 0 -9 -3 -9 -12 0
-18 18 -53 15 -71 -6z m78 -52 c0 -39 -3 -45 -23 -48 -30 -4 -52 14 -52 43 0
44 11 56 44 53 30 -3 31 -5 31 -48z"/>
<path d="M8930 2230 c-28 -28 -27 -84 2 -104 31 -22 64 -20 88 4 41 41 12 120
-45 120 -14 0 -34 -9 -45 -20z m78 -12 c7 -7 12 -24 12 -38 0 -31 -17 -50 -45
-50 -28 0 -45 19 -45 50 0 31 17 50 45 50 12 0 26 -5 33 -12z"/>
<path d="M4000 2220 c-6 -11 -8 -20 -6 -20 3 0 10 9 16 20 6 11 8 20 6 20 -3
0 -10 -9 -16 -20z"/>
<path d="M8234 2129 c-3 -6 -1 -15 6 -19 7 -4 9 -13 5 -20 -5 -9 -4 -11 3 -6
14 9 16 56 3 56 -6 0 -13 -5 -17 -11z"/>
<path d="M9107 2133 c-12 -11 -8 -23 8 -23 8 0 15 7 15 15 0 16 -12 20 -23 8z"/>
<path d="M3900 2050 c0 -5 7 -7 15 -4 8 4 15 8 15 10 0 2 -7 4 -15 4 -8 0 -15
-4 -15 -10z"/>
<path d="M5899 1996 c-3 -3 -65 -13 -139 -22 -123 -15 -189 -29 -179 -38 5 -4
322 24 327 29 2 2 2 11 0 20 -1 9 -5 14 -9 11z"/>
<path d="M7046 1982 c-5 -8 -19 -10 -40 -6 -25 4 -35 2 -39 -10 -4 -9 -2 -16
2 -16 5 0 11 5 13 11 2 7 12 7 31 -2 30 -13 53 -2 45 22 -3 10 -6 10 -12 1z"/>
<path d="M6890 1960 c0 -5 5 -10 10 -10 6 0 10 5 10 10 0 6 -4 10 -10 10 -5 0
-10 -4 -10 -10z"/>
<path d="M7640 1960 c0 -5 7 -10 15 -10 8 0 15 5 15 10 0 6 -7 10 -15 10 -8 0
-15 -4 -15 -10z"/>
<path d="M6250 1870 c0 -88 16 -126 22 -52 3 34 6 37 36 40 42 4 62 -12 62
-49 0 -16 5 -29 10 -29 15 0 12 57 -5 73 -13 13 -13 16 0 27 21 18 19 57 -4
70 -11 5 -42 10 -70 10 l-51 0 0 -90z m117 54 c11 -29 -11 -49 -53 -49 -37 0
-39 2 -42 33 -3 32 -3 32 43 32 33 0 47 -4 52 -16z"/>
<path d="M7885 1943 c-4 -13 -14 -23 -21 -23 -8 0 -14 -4 -14 -10 0 -5 7 -10
15 -10 12 0 15 -13 15 -60 0 -33 4 -60 10 -60 6 0 10 27 10 60 0 47 3 60 15
60 8 0 15 5 15 10 0 6 -6 10 -14 10 -8 0 -17 10 -19 23 l-4 22 -8 -22z"/>
<path d="M6441 1894 c-12 -15 -21 -34 -21 -44 0 -31 39 -70 70 -70 29 0 59 25
45 38 -4 4 -10 1 -12 -5 -7 -21 -61 -16 -73 6 -15 30 -14 31 45 31 60 0 67 9
39 48 -22 31 -67 29 -93 -4z m78 -7 c15 -19 4 -27 -36 -27 -31 0 -44 16 -26
33 11 12 50 8 62 -6z"/>
<path d="M6580 1862 c0 -32 5 -63 12 -70 16 -16 53 -15 66 1 8 9 3 12 -21 12
-32 0 -32 0 -35 58 -4 75 -22 74 -22 -1z"/>
<path d="M6678 1873 c-4 -60 1 -93 13 -93 5 0 9 32 9 70 0 79 -16 96 -22 23z"/>
<path d="M6730 1850 c0 -82 16 -94 22 -17 4 58 0 87 -13 87 -5 0 -9 -31 -9
-70z"/>
<path d="M6771 1906 c-10 -12 -6 -14 21 -13 l33 2 3 -57 c2 -32 7 -58 12 -58
14 0 12 114 -2 128 -16 16 -53 15 -67 -2z"/>
<path d="M6890 1850 c0 -40 4 -70 10 -70 6 0 10 30 10 70 0 40 -4 70 -10 70
-6 0 -10 -30 -10 -70z"/>
<path d="M6967 1902 c-23 -25 -22 -85 1 -105 23 -21 56 -22 73 -1 12 14 14 14
20 -3 4 -10 8 13 8 55 1 42 -3 72 -9 72 -5 0 -10 -5 -10 -12 0 -9 -3 -9 -12 0
-18 18 -53 15 -71 -6z m78 -52 c0 -39 -3 -45 -23 -48 -30 -4 -52 14 -52 43 0
44 11 56 44 53 30 -3 31 -5 31 -48z"/>
<path d="M7121 1894 c-12 -15 -21 -34 -21 -44 0 -10 9 -29 21 -44 39 -50 112
-22 112 44 0 66 -73 94 -112 44z m90 -21 c15 -41 -3 -73 -41 -73 -39 0 -59 36
-42 75 17 37 69 35 83 -2z"/>
<path d="M7346 1905 c-57 -57 5 -163 64 -110 20 18 20 17 20 -23 0 -23 5 -42
10 -42 6 0 10 38 10 95 0 57 -4 95 -10 95 -11 0 -13 -17 -10 -63 2 -35 -15
-57 -46 -57 -33 0 -52 40 -35 76 9 22 17 25 42 22 18 -3 28 -1 26 6 -6 18 -53
18 -71 1z"/>
<path d="M7490 1862 c0 -32 5 -63 12 -70 16 -16 53 -15 66 1 8 9 3 12 -21 12
-32 0 -32 0 -35 58 -4 75 -22 74 -22 -1z"/>
<path d="M7588 1873 c-4 -60 1 -93 13 -93 5 0 9 32 9 70 0 79 -16 96 -22 23z"/>
<path d="M7650 1850 c0 -40 4 -70 10 -70 6 0 10 30 10 70 0 40 -4 70 -10 70
-6 0 -10 -30 -10 -70z"/>
<path d="M7710 1850 c0 -40 4 -70 10 -70 6 0 10 22 10 48 0 53 12 72 46 72 26
0 34 -17 34 -76 0 -26 5 -44 11 -44 17 0 6 119 -12 131 -21 13 -46 11 -63 -7
-15 -14 -16 -14 -16 0 0 9 -4 16 -10 16 -6 0 -10 -30 -10 -70z"/>
<path d="M7976 1904 c-57 -56 6 -162 64 -109 18 16 20 17 20 2 0 -10 5 -17 10
-17 6 0 10 30 10 70 0 40 -4 70 -10 70 -5 0 -10 -5 -10 -12 0 -9 -3 -9 -12 0
-17 17 -54 15 -72 -4z m72 -16 c7 -7 12 -24 12 -38 0 -52 -61 -71 -82 -25 -23
51 32 101 70 63z"/>
<path d="M8191 1894 c-12 -15 -21 -34 -21 -44 0 -30 39 -70 69 -70 29 0 70 34
57 47 -4 5 -12 0 -17 -10 -16 -27 -67 -22 -81 8 -17 38 3 75 41 75 18 0 34 -7
40 -17 5 -10 13 -15 17 -10 13 13 -28 47 -57 47 -18 0 -35 -9 -48 -26z"/>
<path d="M8341 1894 c-12 -15 -21 -34 -21 -44 0 -10 9 -29 21 -44 39 -50 112
-22 112 44 0 66 -73 94 -112 44z m90 -21 c15 -41 -3 -73 -41 -73 -39 0 -59 36
-42 75 17 37 69 35 83 -2z"/>
<path d="M8490 1850 c0 -40 4 -70 10 -70 6 0 10 22 10 48 0 53 12 72 46 72 26
0 34 -17 34 -76 0 -65 18 -54 22 14 3 56 3 57 33 57 30 0 30 -1 33 -57 2 -32
7 -58 12 -58 13 0 13 96 0 121 -13 23 -52 25 -70 4 -11 -13 -14 -13 -27 0 -19
19 -48 19 -67 -1 -15 -14 -16 -14 -16 0 0 9 -4 16 -10 16 -6 0 -10 -30 -10
-70z"/>
<path d="M8810 1900 c-28 -28 -27 -84 2 -104 31 -22 64 -20 88 4 41 41 12 120
-45 120 -14 0 -34 -9 -45 -20z m78 -12 c7 -7 12 -24 12 -38 0 -31 -17 -50 -45
-50 -28 0 -45 19 -45 50 0 31 17 50 45 50 12 0 26 -5 33 -12z"/>
<path d="M8961 1902 c-13 -24 2 -47 39 -62 17 -7 29 -18 27 -24 -5 -16 -48
-20 -58 -5 -4 8 -11 10 -15 6 -13 -12 18 -37 47 -37 18 0 32 7 39 19 14 28 14
28 -30 56 -23 14 -38 30 -35 35 9 14 43 12 48 -2 2 -7 8 -10 12 -6 13 12 -15
38 -41 38 -13 0 -28 -8 -33 -18z"/>
<path d="M5140 1728 c-49 -81 -29 -150 45 -156 42 -4 85 27 85 62 0 26 -22 86
-32 86 -4 0 -8 9 -8 20 0 16 -7 20 -35 20 -29 0 -39 -6 -55 -32z"/>
<path d="M6980 1620 c0 -5 7 -10 15 -10 8 0 15 5 15 10 0 6 -7 10 -15 10 -8 0
-15 -4 -15 -10z"/>
<path d="M7210 1535 c0 -57 4 -95 10 -95 6 0 10 38 10 95 0 57 -4 95 -10 95
-6 0 -10 -38 -10 -95z"/>
<path d="M7270 1620 c0 -5 5 -10 10 -10 6 0 10 5 10 10 0 6 -4 10 -10 10 -5 0
-10 -4 -10 -10z"/>
<path d="M7990 1593 c0 -29 -3 -34 -12 -25 -34 34 -88 -2 -88 -60 0 -57 59
-91 91 -52 12 14 14 14 20 -3 4 -10 8 26 8 80 1 58 -3 97 -9 97 -5 0 -10 -17
-10 -37z m-5 -83 c0 -39 -3 -45 -23 -48 -30 -4 -52 14 -52 43 0 44 11 56 44
53 30 -3 31 -5 31 -48z"/>
<path d="M8450 1535 c0 -57 4 -95 10 -95 6 0 10 7 10 17 0 15 1 15 18 0 26
-23 58 -21 76 5 46 66 -19 153 -76 101 -17 -15 -18 -14 -18 25 0 23 -4 42 -10
42 -6 0 -10 -38 -10 -95z m98 13 c7 -7 12 -24 12 -38 0 -52 -61 -71 -82 -25
-23 51 32 101 70 63z"/>
<path d="M8610 1620 c0 -5 7 -10 15 -10 8 0 15 5 15 10 0 6 -7 10 -15 10 -8 0
-15 -4 -15 -10z"/>
<path d="M8680 1535 c0 -57 4 -95 10 -95 6 0 10 38 10 95 0 57 -4 95 -10 95
-6 0 -10 -38 -10 -95z"/>
<path d="M7480 1600 c0 -11 -7 -20 -15 -20 -8 0 -15 -4 -15 -10 0 -5 7 -10 15
-10 12 0 15 -13 15 -60 0 -33 4 -60 10 -60 6 0 10 27 10 60 0 47 3 60 15 60 8
0 15 5 15 10 0 6 -7 10 -15 10 -8 0 -15 9 -15 20 0 11 -4 20 -10 20 -5 0 -10
-9 -10 -20z"/>
<path d="M8304 1548 c-15 -40 -31 -81 -36 -90 -6 -12 -5 -18 2 -18 6 0 15 11
20 25 8 21 16 25 50 25 33 0 42 -4 52 -25 6 -14 15 -25 19 -25 7 0 -42 147
-57 171 -12 20 -24 5 -50 -63z m66 -25 c0 -8 -12 -13 -30 -13 -35 0 -35 -1
-14 48 l16 37 14 -30 c7 -16 13 -36 14 -42z"/>
<path d="M6261 1554 c-12 -15 -21 -34 -21 -44 0 -31 39 -70 70 -70 29 0 59 25
45 38 -4 4 -10 1 -12 -5 -7 -21 -61 -16 -73 6 -15 30 -14 31 45 31 60 0 67 9
39 48 -22 31 -67 29 -93 -4z m78 -7 c15 -19 4 -27 -36 -27 -31 0 -44 16 -26
33 11 12 50 8 62 -6z"/>
<path d="M6412 1568 c-23 -23 -13 -48 23 -64 40 -16 47 -44 12 -44 -13 0 -28
5 -35 12 -6 6 -14 9 -17 6 -10 -10 26 -38 49 -38 54 0 63 54 11 76 -19 8 -35
21 -35 29 0 17 35 21 45 5 12 -20 26 -10 15 10 -12 22 -49 27 -68 8z"/>
<path d="M6520 1485 c0 -57 4 -95 10 -95 6 0 11 19 11 43 1 23 3 56 4 72 3 38
-5 75 -16 75 -5 0 -9 -43 -9 -95z"/>
<path d="M6561 1566 c-9 -11 -6 -12 14 -8 33 6 55 -13 55 -48 0 -35 -22 -54
-55 -48 -20 4 -23 3 -14 -8 30 -36 89 1 89 56 0 55 -59 92 -89 56z"/>
<path d="M6700 1560 c-41 -41 -12 -120 44 -120 25 0 62 28 51 38 -3 3 -11 0
-17 -6 -25 -25 -78 -8 -78 25 0 9 16 13 50 13 43 0 50 3 50 19 0 48 -64 67
-100 31z m78 -22 c3 -15 -4 -18 -37 -18 -43 0 -50 7 -29 28 18 18 62 11 66
-10z"/>
<path d="M6841 1554 c-12 -15 -21 -34 -21 -44 0 -30 39 -70 69 -70 29 0 70 34
57 47 -4 5 -12 0 -17 -10 -16 -27 -67 -22 -81 8 -17 38 3 75 41 75 18 0 34 -7
40 -17 5 -10 13 -15 17 -10 13 13 -28 47 -57 47 -18 0 -35 -9 -48 -26z"/>
<path d="M6990 1510 c0 -40 4 -70 10 -70 6 0 10 30 10 70 0 40 -4 70 -10 70
-6 0 -10 -30 -10 -70z"/>
<path d="M7066 1564 c-57 -56 6 -162 64 -109 18 16 20 17 20 2 0 -10 5 -17 10
-17 6 0 10 30 10 70 0 40 -4 70 -10 70 -5 0 -10 -5 -10 -12 0 -9 -3 -9 -12 0
-17 17 -54 15 -72 -4z m72 -16 c7 -7 12 -24 12 -38 0 -52 -61 -71 -82 -25 -23
51 32 101 70 63z"/>
<path d="M7270 1510 c0 -40 4 -70 10 -70 6 0 10 30 10 70 0 40 -4 70 -10 70
-6 0 -10 -30 -10 -70z"/>
<path d="M7341 1562 c-13 -24 2 -47 39 -62 17 -7 29 -18 27 -24 -5 -16 -48
-20 -58 -5 -4 8 -11 10 -15 6 -13 -12 18 -37 47 -37 18 0 32 7 39 19 14 28 14
28 -30 56 -23 14 -38 30 -35 35 9 14 43 12 48 -2 2 -7 8 -10 12 -6 13 12 -15
38 -41 38 -13 0 -28 -8 -33 -18z"/>
<path d="M7567 1562 c-23 -25 -22 -85 1 -105 23 -21 56 -22 73 -1 12 14 14 14
20 -3 4 -10 8 13 8 55 1 42 -3 72 -9 72 -5 0 -10 -5 -10 -12 0 -9 -3 -9 -12 0
-18 18 -53 15 -71 -6z m78 -52 c0 -39 -3 -45 -23 -48 -30 -4 -52 14 -52 43 0
44 11 56 44 53 30 -3 31 -5 31 -48z"/>
<path d="M7721 1562 c-13 -24 2 -47 39 -62 17 -7 29 -18 27 -24 -5 -16 -48
-20 -58 -5 -4 8 -11 10 -15 6 -13 -12 18 -37 47 -37 18 0 32 7 39 19 14 28 14
28 -30 56 -23 14 -38 30 -35 35 9 14 43 12 48 -2 2 -7 8 -10 12 -6 13 12 -15
38 -41 38 -13 0 -28 -8 -33 -18z"/>
<path d="M8076 1564 c-57 -56 6 -162 64 -109 18 16 20 17 20 2 0 -10 5 -17 10
-17 6 0 10 30 10 70 0 40 -4 70 -10 70 -5 0 -10 -5 -10 -12 0 -9 -3 -9 -12 0
-17 17 -54 15 -72 -4z m72 -16 c7 -7 12 -24 12 -38 0 -52 -61 -71 -82 -25 -23
51 32 101 70 63z"/>
<path d="M8620 1510 c0 -40 4 -70 10 -70 6 0 10 30 10 70 0 40 -4 70 -10 70
-6 0 -10 -30 -10 -70z"/>
<path d="M8751 1554 c-12 -15 -21 -34 -21 -44 0 -31 39 -70 70 -70 29 0 59 25
45 38 -4 4 -10 1 -12 -5 -7 -21 -61 -16 -73 6 -15 30 -14 31 45 31 60 0 67 9
39 48 -22 31 -67 29 -93 -4z m78 -7 c15 -19 4 -27 -36 -27 -31 0 -44 16 -26
33 11 12 50 8 62 -6z"/>
<path d="M8890 1456 c0 -9 7 -16 16 -16 9 0 14 5 12 12 -6 18 -28 21 -28 4z"/>
<path d="M4251 1114 c0 -11 3 -14 6 -6 3 7 2 16 -1 19 -3 4 -6 -2 -5 -13z"/>
<path d="M6584 1059 c-3 -6 -2 -15 3 -20 5 -5 9 -1 9 11 0 23 -2 24 -12 9z"/>
</g>
</svg>
